<?xml version="1.0" encoding="UTF-8"?><svg id="_レイヤー_2" xmlns="http://www.w3.org/2000/svg" viewBox="0 0 67.75 65.71"><g id="_レイヤー_1-2"><path d="M38.94,51.89v13.82h-11.93c-.16-1.11-.33-2.21-.46-3.32-.05-.46-.2-.7-.7-.82-3.24-.75-6.26-2.06-9.1-3.9-1.08.88-2.16,1.77-3.28,2.69-2.52-2.6-5.01-5.16-7.56-7.79.66-.92,1.44-2.02,2.22-3.1-.6-1.07-1.23-2.11-1.78-3.19-1-1.96-1.7-4.04-2.18-6.19-.08-.34-.19-.49-.56-.56-1.2-.2-2.39-.46-3.61-.71v-11.89c.74-.13,1.51-.27,2.28-.4.44-.08.89-.19,1.33-.21.44-.01.55-.25.64-.61.78-3.13,1.99-6.09,3.74-8.81.19-.3.08-.47-.09-.69-.72-.96-1.43-1.93-2.18-2.93,2.59-2.53,5.14-5.03,7.71-7.54,1.12.86,2.18,1.69,3.24,2.5,1.01-.58,1.98-1.18,2.99-1.71,1.96-1.04,4.04-1.8,6.19-2.32.39-.1.58-.23.63-.68.1-1.03.28-2.04.42-3.06C26.94.18,27.01,0,27.38,0c3.77.01,7.54.01,11.32.01.07,0,.14.02.25.03v14.1c-.42,0-.85,0-1.27,0-2.44.02-4.87.12-7.27.64-7.31,1.59-13.25,8-14.47,15.38-1.55,9.47,5.16,19.35,15.08,21.25,2.32.45,4.66.47,7,.48.3,0,.59,0,.92,0ZM29.07,2.43c-.14.99-.3,1.92-.38,2.85-.05.59-.26.85-.87.97-2.45.49-4.84,1.23-7.04,2.43-1.44.78-2.82,1.69-4.27,2.57-.9-.7-1.87-1.47-2.92-2.29-1.51,1.6-2.99,3.18-4.51,4.78.65.82,1.4,1.76,2.14,2.7-.04.08-.06.13-.09.18-2.52,3.38-4.08,7.18-4.88,11.31-.03.17-.28.38-.46.42-.99.2-1.99.38-2.99.52-.33.05-.44.16-.44.49.01,2.35.01,4.69,0,7.04,0,.34.13.45.44.5.9.16,1.8.39,2.7.53.51.08.67.32.79.81.37,1.56.74,3.14,1.26,4.66.83,2.39,2.09,4.56,3.69,6.55-.76,1.02-1.51,2.03-2.2,2.95,1.57,1.58,3.11,3.13,4.65,4.69.94-.8,1.9-1.61,2.87-2.42.15.1.28.17.4.26,3.3,2.36,6.98,3.84,10.93,4.68.54.11.74.32.8.85.1.96.28,1.92.42,2.86h7.44v-8.98c-.66-.03-1.27-.06-1.89-.09-.62-.03-1.24-.06-1.85-.12-5.6-.54-10.37-2.83-14.06-7.08-5.59-6.44-7.18-13.81-3.93-21.73,3.45-8.42,10.15-12.7,19.17-13.42.85-.07,1.71-.08,2.57-.12V2.43h-7.49Z"/><path d="M59.01,44.09c.79-.64,1.62-1.12,2.62-1.27,1.93-.29,3.49.37,4.63,1.91,1.13,1.54,1.26,3.24.36,4.93-.89,1.67-2.32,2.57-4.25,2.54-3.03-.04-5.13-2.53-4.69-5.52.03-.2-.07-.48-.21-.63-1.27-1.28-2.56-2.54-3.86-3.78-.16-.15-.46-.23-.69-.23-3.08-.02-6.15-.01-9.23-.01-.22,0-.44,0-.7,0v-2.44c.21,0,.39,0,.57,0,3.45,0,6.9,0,10.35,0,.37,0,.62.11.88.37,1.26,1.26,2.53,2.5,3.81,3.75.13.13.27.25.41.39ZM62.36,49.83c1.32,0,2.4-1.02,2.42-2.31.02-1.26-1.08-2.38-2.35-2.39-1.3,0-2.4,1.05-2.42,2.32-.02,1.28,1.06,2.38,2.35,2.38Z"/><path d="M58.97,19.28c-1.4,1.38-2.79,2.73-4.15,4.1-.31.31-.62.41-1.04.41-3.38-.02-6.75-.02-10.13-.02-.2,0-.41,0-.66,0v-2.45c.2,0,.42,0,.64,0,3.1,0,6.19,0,9.29-.02.3,0,.66-.15.87-.35,1.26-1.18,2.49-2.39,3.7-3.62.17-.17.25-.53.23-.79-.16-2.03.83-3.86,2.64-4.76,1.73-.87,3.88-.55,5.34.79,1.85,1.7,2,4.6.34,6.5-1.73,1.98-4.58,2.25-6.57.63-.15-.12-.28-.24-.49-.42ZM60.07,16.02c.01,1.26,1.1,2.37,2.32,2.37,1.31,0,2.41-1.1,2.41-2.4,0-1.25-1.12-2.33-2.42-2.32-1.26,0-2.32,1.1-2.31,2.35Z"/><path d="M42.97,33.36v-2.43c.44,0,.85,0,1.25,0,4.45,0,8.9,0,13.34.02.46,0,.66-.11.8-.6.67-2.27,2.84-3.66,5.2-3.4,2.21.24,3.97,2.12,4.16,4.43.17,2.07-1.33,4.18-3.43,4.81-2.18.66-4.5-.25-5.53-2.22-.26-.5-.54-.63-1.07-.63-4.67.02-9.35,0-14.02,0-.22,0-.44,0-.71,0ZM62.95,29.31c-1.27,0-2.37,1.1-2.38,2.37,0,1.25,1.08,2.36,2.31,2.37,1.33.01,2.42-1.09,2.42-2.43,0-1.24-1.09-2.31-2.36-2.31Z"/><path d="M42.96,60.23v-2.42c1.39,0,2.75,0,4.11,0,.19,0,.38-.02.56,0,.46.07.67-.12.84-.56.79-2.05,2.73-3.24,4.92-3.07,2.03.16,3.77,1.69,4.22,3.71.5,2.23-.79,4.62-2.92,5.41-2.28.85-4.9-.06-5.92-2.19-.37-.77-.8-.94-1.57-.91-1.4.06-2.81.02-4.26.02ZM52.95,61.24c1.29.02,2.36-1.03,2.38-2.33.02-1.23-1.07-2.33-2.32-2.36-1.29-.03-2.4,1.01-2.43,2.29-.03,1.32,1.01,2.38,2.37,2.4Z"/><path d="M48.37,5.44h-5.12v-2.45c.18,0,.38,0,.58,0,1.46,0,2.93,0,4.39,0,.31,0,.49-.08.65-.38,1.09-2.09,3.46-3.08,5.62-2.38,2.25.72,3.56,2.84,3.24,5.22-.27,2-2.2,3.81-4.2,3.94-2.4.16-4.44-1.22-5.01-3.39-.05-.18-.09-.36-.15-.56ZM55.38,4.68c0-1.24-1.03-2.27-2.29-2.28-1.28,0-2.34,1.03-2.35,2.3,0,1.3,1.02,2.34,2.3,2.34,1.31,0,2.34-1.04,2.35-2.36Z"/></g></svg>