<?xml version="1.0" encoding="UTF-8"?><svg id="_レイヤー_2" xmlns="http://www.w3.org/2000/svg" viewBox="0 0 212.34 32.05"><defs><style>.cls-1{fill:#fff;}</style></defs><g id="_レイヤー_1-2"><path class="cls-1" d="M16.07,0c1.47,1.48,2.98,3,4.5,4.53-3.8,3.8-7.61,7.6-11.39,11.38,1.93,1.97,3.83,3.91,5.72,5.84-1.5,1.5-3.03,3.03-4.52,4.52-3.46-3.41-6.93-6.82-10.37-10.21C5.38,10.68,10.71,5.35,16.07,0Z"/><path class="cls-1" d="M32.06,16.05c-5.29,5.31-10.62,10.66-15.94,16.01-1.52-1.52-3.02-3.02-4.59-4.59,5.35-5.3,10.71-10.62,16.06-15.92,1.46,1.47,2.95,2.98,4.47,4.51Z"/><path class="cls-1" d="M16,20.54c-1.46-1.46-2.97-2.96-4.47-4.45,3.43-3.42,6.86-6.85,10.27-10.27,1.48,1.48,2.98,2.98,4.53,4.54-3.43,3.38-6.89,6.79-10.33,10.18Z"/><polygon class="cls-1" points="55.29 25.75 55.29 8.15 50.11 8.15 45.71 19.64 45.62 19.64 41.22 8.15 36.04 8.15 36.04 25.75 39.98 25.75 39.98 14.76 40.07 14.76 44.38 25.75 46.94 25.75 51.25 14.76 51.35 14.76 51.35 25.75 55.29 25.75"/><rect class="cls-1" x="57.94" y="8.15" width="4.48" height="17.6"/><polygon class="cls-1" points="69.57 15.5 69.65 15.5 76.72 25.75 80.47 25.75 80.47 8.15 76.01 8.15 76.01 18.3 75.93 18.3 68.9 8.15 65.09 8.15 65.09 25.75 69.57 25.75 69.57 15.5"/><polygon class="cls-1" points="87.23 25.75 91.71 25.75 91.71 11.75 96.55 11.75 96.55 8.15 82.38 8.15 82.38 11.75 87.23 11.75 87.23 25.75"/><polygon class="cls-1" points="102.51 11.41 107.36 11.41 107.36 25.42 111.84 25.42 111.84 11.41 116.68 11.41 116.68 7.81 102.51 7.81 102.51 11.41"/><path class="cls-1" d="M132.05,16.73c.54-.9.82-1.92.82-3.05v-.02c0-1.24-.26-2.3-.78-3.17s-1.28-1.53-2.27-1.99c-.99-.46-2.2-.68-3.62-.68h-7.62v17.6h4.48v-6.06h2.28l3.01,6.06h5.04l-3.51-6.72c.91-.41,1.64-1.06,2.18-1.96ZM128.3,13.67c0,.74-.23,1.33-.7,1.77-.47.44-1.1.66-1.9.66h-2.65v-4.92h2.62c.79,0,1.42.22,1.9.67.48.45.72,1.04.72,1.78v.02Z"/><path class="cls-1" d="M144.19,7.81h-4.12l-5.93,17.6h4.71l1.1-3.85h5.73l1.1,3.85h4.71l-5.93-17.6h-1.37ZM140.86,18.33l1.9-6.68h.09l1.91,6.68h-3.89Z"/><path class="cls-1" d="M164.86,8.82c-1.26-.67-2.77-1-4.54-1h-7.16v17.6h7.16c1.77,0,3.29-.35,4.54-1.06,1.26-.7,2.22-1.72,2.88-3.05.67-1.33,1-2.93,1-4.8v-.02c0-1.87-.33-3.45-1-4.74-.67-1.29-1.63-2.27-2.89-2.93ZM164.19,16.52c0,1.17-.17,2.15-.51,2.93-.34.78-.84,1.37-1.51,1.76-.67.39-1.48.59-2.45.59h-2.09v-10.38h2.09c.94,0,1.74.19,2.41.58.67.39,1.18.96,1.53,1.71.35.76.52,1.68.52,2.78v.02Z"/><rect class="cls-1" x="170.94" y="7.81" width="4.48" height="17.6"/><polygon class="cls-1" points="189 17.96 188.93 17.96 181.89 7.81 178.09 7.81 178.09 25.42 182.56 25.42 182.56 15.16 182.64 15.16 189.71 25.42 193.47 25.42 193.47 7.81 189 7.81 189 17.96"/><path class="cls-1" d="M204.51,15.77v3.17h3.51l-.02.22c-.04.59-.22,1.09-.52,1.52-.31.43-.72.76-1.24.99-.52.23-1.11.35-1.79.35s-1.22-.12-1.74-.37c-.52-.25-.97-.61-1.34-1.07-.37-.47-.65-1.04-.85-1.72-.2-.68-.29-1.45-.29-2.32h0c0-1.15.16-2.12.48-2.91.32-.79.78-1.39,1.38-1.81.6-.41,1.32-.62,2.16-.62s1.59.2,2.19.6c.6.4,1.01.96,1.24,1.67l.05.12h4.43l-.02-.15c-.15-1.14-.57-2.16-1.28-3.06-.71-.9-1.63-1.61-2.76-2.12-1.13-.52-2.41-.77-3.85-.77-1.77,0-3.3.36-4.58,1.08-1.28.72-2.27,1.75-2.96,3.1-.7,1.35-1.04,2.98-1.04,4.89h0c0,1.46.2,2.75.6,3.88s.97,2.09,1.73,2.87c.75.78,1.66,1.38,2.73,1.79s2.29.62,3.65.62c1.25,0,2.37-.18,3.36-.54.99-.36,1.83-.87,2.51-1.54.69-.67,1.21-1.48,1.57-2.44s.54-2.03.54-3.24v-2.21h-7.83Z"/></g></svg>