<?xml version="1.0" encoding="UTF-8"?>
<svg id="_レイヤー_2" data-name="レイヤー 2" xmlns="http://www.w3.org/2000/svg" viewBox="0 0 88.57 79.15">
  <defs>
    <style>
      .cls-1 {
        fill: #1a1a1a;
      }
    </style>
  </defs>
  <g id="_レイヤー_1-2" data-name="レイヤー 1">
    <path class="cls-1" d="M25.16,33.69c1.78-3.23,3.52-6.42,5.27-9.59,4.16-7.55,8.33-15.09,12.5-22.64.14-.25.23-.55.42-.75.28-.29.62-.68.95-.71.27-.02.67.39.85.71,2.13,3.83,4.22,7.68,6.33,11.52,3.83,6.97,7.67,13.94,11.51,20.91.1.17.21.33.36.55,2.3-1.55,4.56-3.08,6.83-4.6,5.56-3.73,11.12-7.47,16.68-11.2.17-.11.33-.3.5-.32.32-.04.75-.09.96.08.19.15.28.61.22.89-.76,3.42-1.54,6.84-2.33,10.26-1.9,8.18-3.81,16.35-5.7,24.53-1.18,5.07-2.34,10.14-3.5,15.21-.52,2.25-1.94,3.82-3.78,5.08-3,2.05-6.42,3.1-9.91,3.85-4.29.92-8.64,1.52-13.04,1.58-4.37.06-8.75.19-13.11-.04-6.34-.33-12.63-1.21-18.58-3.61-2.29-.92-4.42-2.11-5.99-4.12-1.01-1.3-1.11-2.88-1.46-4.38-2.25-9.66-4.46-19.33-6.69-29C2.98,31.56,1.48,25.21.02,18.84c-.09-.39.12-.85.19-1.28.45.09.99.05,1.35.28,7.75,5.19,15.48,10.4,23.21,15.61.1.06.2.11.39.22ZM44.27,2.48c-.15.23-.22.32-.28.42-5.84,10.58-11.67,21.16-17.51,31.73-.69,1.26-.98,1.32-2.13.54-3.68-2.51-7.35-5.02-11.03-7.51-3.72-2.51-7.46-5.01-11.36-7.62,3.72,16.03,7.39,31.87,11.05,47.66,1.06-.65,2.02-1.37,3.08-1.87,7.74-3.59,15.93-5.27,24.4-5.71,5.65-.29,11.27.09,16.82,1.2,6.33,1.26,12.58,2.78,18.18,6.42,3.67-15.84,7.34-31.69,11.06-47.72-7.55,5.1-14.94,10.08-22.33,15.07-1.3.88-1.55.84-2.32-.55-4.46-8.11-8.93-16.21-13.39-24.32-1.4-2.55-2.8-5.1-4.25-7.74ZM46.12,77.75c2.8-.25,7.66-.62,12.52-1.13,3.59-.37,7.09-1.19,10.43-2.59,1.82-.76,3.54-1.69,4.92-3.14,1.03-1.08,1.06-1.38-.15-2.21-.99-.68-2.05-1.29-3.16-1.76-5.11-2.17-10.44-3.55-15.92-4.39-5.81-.89-11.62-1.1-17.47-.52-4.69.46-9.29,1.3-13.78,2.73-2.91.92-5.86,1.78-8.4,3.53-1.85,1.27-2.15,1.38-.15,3.14,2.17,1.9,4.84,2.88,7.57,3.66,7.03,2,14.24,2.49,23.59,2.69Z"/>
  </g>
</svg>