<?xml version="1.0" encoding="UTF-8"?>
<svg id="_レイヤー_2" data-name="レイヤー 2" xmlns="http://www.w3.org/2000/svg" viewBox="0 0 124.03 79.15">
  <defs>
    <style>
      .cls-1 {
        fill: #1a1a1a;
      }
    </style>
  </defs>
  <g id="_レイヤー_1-2" data-name="レイヤー 1">
    <path class="cls-1" d="M10.4,29.54c-.23.27-.41.52-.63.72-.53.46-1.1.48-1.61-.02-2.6-2.58-5.19-5.16-7.76-7.76-.6-.6-.52-1.21.19-1.92,1.62-1.63,3.25-3.24,4.87-4.86C10.43,10.73,15.4,5.78,20.37.82c1.1-1.1,1.69-1.09,2.81.03,2.22,2.22,4.46,4.43,6.66,6.67.37.38.59.91.89,1.37-.05.05-.11.11-.16.16.24.01.47.04.71.04,9.12,0,18.25,0,27.37-.01.32,0,.72-.11.93-.32,2.16-2.13,4.75-2.58,7.62-2.06,5.47,1,10.94,2.04,16.42,2.98,1.14.2,2.34.06,3.52.06,2.21,0,4.42,0,6.74,0-.58-1.06-.08-1.75.63-2.44,2.28-2.2,4.51-4.45,6.78-6.66.86-.85,1.53-.83,2.39.03,6.5,6.52,13,13.04,19.49,19.56,1.2,1.2,1.16,1.72-.06,2.9-2.35,2.28-4.67,4.6-7.03,6.87-.32.3-.84.39-1.25.6-.3.15-.61.31-.84.54-4.92,4.89-9.83,9.79-14.74,14.69-.77.77-1.54,1.54-2.3,2.32,2.21,2.63,2.23,5.44,1,7.48-1.33,2.21-3.91,3.31-6.78,2.86.29,2.1-.17,3.97-1.72,5.46-1.54,1.48-3.39,1.98-5.61,1.54.15,2.1-.37,3.99-1.96,5.44-1.62,1.48-3.54,1.8-5.69,1.28-.05.74,0,1.48-.17,2.17-1.13,4.72-6.7,6.37-10.2,2.99-2.87-2.77-5.67-5.61-8.49-8.42-.19-.19-.35-.42-.62-.76-1.12,1.14-2.1,2.23-3.17,3.22-1.01.94-2,1.99-3.2,2.62-3.73,1.96-8.21-.92-8.13-5.14,0-.35.07-.69.12-1.14-1.96.34-3.69-.14-5.1-1.52-1.43-1.4-1.82-3.16-1.56-5.2-1.98.18-3.74-.16-5.15-1.58-1.42-1.43-1.76-3.19-1.55-5.16-2.82.26-5.02-.7-6.23-3.26-1.26-2.67-.34-4.97,1.67-7.04-4.63-4.79-9.25-9.58-13.97-14.46ZM66.41,20.64c-.27.33-.5.7-.82.99-2.29,2.1-4.51,4.29-6.93,6.24-2.72,2.2-5.89,3.23-9.44,2.68-1.59-.25-2.93-1.01-3.96-2.25-1.36-1.64-1.07-4.23.66-6,1.66-1.7,3.36-3.36,5.04-5.05,1.97-1.99,3.94-3.99,5.95-6.04-.29,0-.55,0-.81,0-8.52,0-17.04,0-25.56,0-.3,0-.64.07-.89-.05-.49-.24-.74.01-1.05.32-4.21,4.21-8.43,8.41-12.65,12.61-1.33,1.32-2.66,2.64-4.04,4.01,4.68,4.85,9.3,9.63,13.98,14.48.22-.26.39-.48.58-.67,2.01-1.97,3.94-4.03,6.05-5.88,2.59-2.26,6.51-1.65,8.47,1.16.9,1.29,1.2,2.74.9,4.34,2.03-.36,3.74.12,5.17,1.52,1.45,1.42,1.92,3.15,1.55,5.15,2.02-.35,3.77.11,5.23,1.49,1.52,1.43,1.84,3.25,1.55,5.14.88.08,1.74.05,2.53.25,4.22,1.1,5.57,6.02,2.56,9.34-.76.84-1.66,1.56-2.45,2.29,3.18,3.21,6.19,6.3,9.27,9.33.98.96,2.28,1.29,3.64.98,1.63-.37,2.71-1.42,3.1-3.02.36-1.49,0-2.85-1.15-3.96-3-2.94-5.99-5.91-8.98-8.86-.7-.69-.82-1.28-.36-1.77.49-.53,1.04-.43,1.8.32,1.07,1.06,2.12,2.12,3.19,3.18,2.18,2.15,4.31,4.34,6.55,6.42,2.32,2.15,5.74,1.14,6.59-1.9.48-1.7-.14-3.06-1.36-4.26-3.98-3.93-7.94-7.9-11.9-11.85-.27-.27-.63-.55-.7-.88-.08-.39-.04-.99.21-1.21.24-.22.82-.14,1.23-.06.23.04.4.35.6.54,4.02,4.01,8.04,8.03,12.06,12.04.42.42.86.85,1.35,1.19,1.18.83,2.48,1.03,3.77.35,1.36-.71,2.2-1.83,2.28-3.44.07-1.37-.44-2.47-1.41-3.42-4.21-4.13-8.4-8.28-12.6-12.43-.65-.64-.79-1.32-.35-1.78.5-.53,1.08-.44,1.82.31.04.04.08.08.11.12,4.31,4.26,8.63,8.52,12.94,12.78,1.05,1.04,2.3,1.42,3.74,1.1,1.62-.36,2.76-1.32,3.18-2.94.43-1.69-.22-3.08-1.42-4.27-7.28-7.25-14.54-14.5-21.81-21.75-2.28-2.27-4.58-4.53-7-6.92ZM113,28.86c-.29-.24-.72-.54-1.08-.9-5.16-5.15-10.32-10.31-15.46-15.48-.5-.5-.95-.66-1.73-.67-4.49-.08-8.99.48-13.46-.4-4.74-.93-9.5-1.72-14.25-2.6-2.48-.46-4.63.04-6.44,1.87-2,2.02-4.04,4-6.05,6-2.31,2.29-4.61,4.58-6.91,6.88-1.71,1.72-1.28,3.83,1,4.6.88.3,1.87.45,2.79.38,2.21-.15,4.3-.85,5.98-2.31,2.69-2.35,5.29-4.8,7.9-7.24,1.05-.98,1.54-1.02,2.54-.02,8.99,9.01,17.97,18.03,26.96,27.04.2.2.42.39.69.64,5.83-5.91,11.61-11.78,17.54-17.79ZM21.75,2.41C15.3,8.89,8.94,15.28,2.64,21.6c2.15,2.15,4.28,4.28,6.48,6.48,6.31-6.38,12.65-12.79,19.01-19.22-2.06-2.08-4.17-4.22-6.37-6.45ZM121.37,21.61c-6.29-6.28-12.65-12.64-19.07-19.06-2.09,2.15-4.2,4.32-6.24,6.41,6.33,6.32,12.68,12.68,19.17,19.17,2.01-2.14,4.07-4.33,6.13-6.53ZM37.57,62.29c0,1.46.79,2.78,2.13,3.29,1.48.56,2.93.43,4.1-.7,2.84-2.75,5.64-5.54,8.44-8.33,1.06-1.05,1.51-2.34,1.14-3.8-.67-2.7-4.04-3.65-6.12-1.67-2.94,2.8-5.8,5.69-8.68,8.55-.7.7-1.06,1.57-1.02,2.65ZM34.56,59.1c1.06.01,1.96-.33,2.72-1.09,2.81-2.82,5.67-5.6,8.44-8.47,1.53-1.59,1.38-3.8-.21-5.23-1.43-1.29-3.61-1.29-5.18.21-2.88,2.76-5.7,5.57-8.48,8.43-1.08,1.12-1.32,2.54-.67,4.01.65,1.45,1.82,2.1,3.37,2.13ZM60.08,60.39c-.05-.35-.05-.71-.15-1.04-.75-2.49-3.89-3.4-5.87-1.55-3.05,2.84-6.01,5.79-8.94,8.77-1.4,1.43-1.25,3.7.16,5.07,1.41,1.37,3.64,1.39,5.08,0,2.84-2.76,5.65-5.54,8.46-8.32.81-.8,1.28-1.75,1.25-2.92ZM27.39,52.36c1.55.04,2.46-.38,3.23-1.15,2.35-2.32,4.71-4.63,7.05-6.95.54-.54,1.09-1.08,1.55-1.68.59-.77.93-1.67.74-2.66-.6-3.12-3.95-4.32-6.28-2.14-2.95,2.75-5.79,5.63-8.6,8.52-1.05,1.08-1.22,2.48-.58,3.87.64,1.42,1.79,2.13,2.89,2.19Z"/>
  </g>
</svg>