<?xml version="1.0" encoding="UTF-8"?>
<svg id="_レイヤー_2" data-name="レイヤー 2" xmlns="http://www.w3.org/2000/svg" viewBox="0 0 110.18 79.15">
  <g id="_レイヤー_1-2" data-name="レイヤー 1">
    <path d="M55.02,79.15c-10.1,0-20.21,0-30.31,0-1.62,0-2.77-.95-2.83-2.49-.18-4.98-.26-9.96,1.52-14.75,3.23-8.69,9.39-14.46,17.91-17.81,5.54-2.18,11.31-2.88,17.24-2.34,7,.64,13.42,2.82,18.97,7.23,5.81,4.62,9.49,10.56,10.44,17.96.41,3.18.33,6.43.36,9.66.01,1.48-1.28,2.55-2.81,2.55-10.16,0-20.32,0-30.49,0ZM55.1,77.74c10.02,0,20.03,0,30.05,0,1.09,0,1.74-.5,1.72-1.54-.06-3.08.05-6.19-.37-9.22-.8-5.83-3.51-10.81-7.72-14.91-5.28-5.13-11.76-7.75-18.95-8.68-3.88-.51-7.78-.41-11.64.32-7.75,1.48-14.34,4.95-19.26,11.24-2.84,3.63-4.77,7.72-5.25,12.33-.3,2.82-.27,5.68-.36,8.52-.04,1.5.42,1.93,1.92,1.93,9.96,0,19.92,0,29.87,0Z"/>
    <path d="M55.11,39.53c-10.25.16-19.83-8.58-19.69-20.09C35.55,8.62,44.1,0,55.04,0c11.11,0,19.86,8.66,19.82,19.74-.05,11.65-9.58,19.9-19.75,19.79ZM36.93,19.49c.03,10.73,8.36,18.46,18.19,18.56,10.06.1,18.29-8.3,18.19-18.6-.1-10.61-8.7-17.78-18.02-17.88-9.82-.11-18.3,7.47-18.36,17.93Z"/>
    <path d="M101.78,20.28c.08,7.27-5.69,13.2-13.04,13.16-7.45-.04-13.12-6.17-12.98-13.51.13-6.77,5.85-13,13.63-12.74,6.78.22,12.45,6.08,12.38,13.09ZM88.79,31.91c6.33,0,11.53-5.24,11.53-11.62,0-6.38-5.27-11.65-11.63-11.64-6.18.01-11.47,5.39-11.45,11.65.02,6.39,5.22,11.62,11.54,11.62Z"/>
    <path d="M21.45,7.22c6.57-.14,13.09,5.24,13.04,13.03-.05,7.29-5.91,13.24-13.05,13.22-7.26-.02-13.15-5.96-13.1-13.26.05-7.69,6.44-13.19,13.11-12.99ZM9.88,20.25c0,6.33,5.13,11.56,11.27,11.67,6.34.12,11.73-5.16,11.85-11.41.13-6.49-4.99-11.86-11.61-11.85-6.74,0-11.66,5.63-11.5,11.59Z"/>
    <path d="M98.84,63.01c-2.76,0-5.52,0-8.28,0-.32,0-.7.06-.95-.08-.25-.14-.51-.5-.52-.77,0-.2.35-.47.6-.61.18-.1.46-.03.69-.03,5.64,0,11.28,0,16.92,0,1.18,0,1.33-.14,1.32-1.31-.04-2.93.23-5.87-.53-8.75-2.04-7.71-7.04-12.5-14.68-14.38-5.89-1.45-11.45-.3-16.43,3.24-.9.64-1.7,1.44-2.53,2.18-.44.39-.88.83-1.41.24-.49-.54-.07-.93.33-1.33,3.31-3.25,7.21-5.41,11.82-6.07,7.54-1.08,14.09.95,19.41,6.53,3.78,3.97,5.43,8.8,5.56,14.2.03,1.44.02,2.88,0,4.32-.02,1.75-.94,2.64-2.69,2.65-1.44,0-2.88,0-4.32,0-1.44,0-2.88,0-4.32,0h0Z"/>
    <path d="M11.3,63.01c-2.85,0-5.7,0-8.55,0-1.99,0-2.78-.78-2.75-2.78.04-2.4-.04-4.83.22-7.21.53-4.87,2.78-8.95,6.34-12.29,4.68-4.39,10.33-6.08,16.63-5.61,5.37.4,9.94,2.66,13.77,6.45.4.39.55.78.12,1.21-.44.43-.84.23-1.22-.15-2.37-2.4-5.14-4.14-8.37-5.14-10.79-3.36-22.49,2.38-25.44,13.61-.68,2.59-.63,5.22-.63,7.86,0,2.85-.12,2.57,2.56,2.57,5.32,0,10.63,0,15.95,0,.23,0,.52-.08.69.02.27.15.65.42.66.66.01.24-.32.58-.58.73-.23.13-.57.07-.86.07-2.85,0-5.7,0-8.55,0Z"/>
  </g>
</svg>