<?xml version="1.0" encoding="UTF-8"?>
<svg id="_レイヤー_2" data-name="レイヤー 2" xmlns="http://www.w3.org/2000/svg" viewBox="0 0 95.5 79.15">
  <g id="_レイヤー_1-2" data-name="レイヤー 1">
    <path d="M72.11,50.49c2.23.65,3.67,2.04,3.87,4.35.17,1.85-.65,3.36-2.29,4.28-1.82,1.02-3.57.77-5.17-.6-.15.14-.28.25-.41.37-4.23,4.3-8.46,8.6-12.71,12.92,1.41,1.98,1.21,4.35-.61,6.08-1.6,1.51-4.22,1.67-5.85.36-2.04-1.64-2.41-3.98-.95-6.47-2.57-2.49-5.16-4.99-7.6-7.35-1.75,1.3-3.34,2.81-5.21,3.81-6.33,3.41-12.77,3.25-19.16.08-.65-.32-1.07-.3-1.62.2-.96.88-2,1.67-3.01,2.48-.82.66-1.35.65-2.09-.11-1.5-1.51-2.98-3.05-4.45-4.58-.61-.63-.61-1.21,0-1.87.94-1.03,1.88-2.05,2.85-3.05.44-.46.54-.83.2-1.46-.6-1.14-1.05-2.36-1.53-3.57-.17-.44-.38-.65-.88-.68-1.36-.08-2.71-.22-4.06-.35-.9-.08-1.4-.58-1.42-1.5-.02-2.13-.02-4.26,0-6.39,0-1.03.47-1.45,1.53-1.53,1.38-.1,2.77-.2,4.15-.36.26-.03.59-.32.7-.57.56-1.32,1.09-2.66,1.57-4.02.1-.28,0-.74-.17-.97-.84-1.07-1.73-2.1-2.64-3.11-.6-.68-.62-1.31.02-1.94,1.62-1.6,3.23-3.21,4.87-4.8.63-.62,1.21-.36,1.78.16,1.18,1.07,2.39,2.12,3.52,3.12,1.62-.65,3.19-1.22,4.7-1.93.3-.14.49-.74.54-1.15.17-1.41.28-2.82.36-4.24.05-.81.44-1.17,1.23-1.16,2.25,0,4.5,0,6.75,0,.7,0,1.1.27,1.16,1.02.13,1.62.29,3.24.5,4.85.03.26.31.6.56.72,1.27.62,2.56,1.2,3.87,1.73.28.11.76.06.99-.11,1.05-.81,2.06-1.69,3.07-2.55,1.04-.89,1.45-.88,2.41.05,1.4,1.36,2.81,2.72,4.2,4.08.92.9.95,1.34.13,2.34-.97,1.19-1.96,2.36-2.91,3.5,3.94,7.89,3.29,15.34-1.72,22.55,2.55,2.45,5.17,4.96,7.8,7.49,1.8-1.03,3.57-1.02,5.53.21,3.2-3.27,6.42-6.57,9.66-9.87,1.02-1.04,2.07-2.04,3.06-3.1.17-.18.24-.64.14-.87-1.07-2.48-.17-5.72,3.33-6.37,0-1.26,0-2.52,0-3.79,0-3.26.06-6.51-.02-9.77-.08-3.09-.91-5.94-3.13-8.24-2.22-2.3-5.04-3.23-8.14-3.3-3.55-.08-7.1-.02-10.66-.02-.24,0-.52.07-.7-.04-.25-.15-.59-.45-.57-.65.03-.26.34-.55.6-.71.17-.11.46-.04.7-.04,3.37,0,6.75.03,10.12-.02,3.64-.05,6.85-1.18,9.25-4.07,1.86-2.24,2.48-4.93,2.53-7.75.07-3.67.02-7.34.02-11.01,0-.24-.07-.53.04-.7.16-.24.47-.53.7-.52.23,0,.52.32.65.57.11.21.04.52.04.79,0,3.43-.03,6.87.02,10.3.04,2.78.52,5.47,2.2,7.79,2.31,3.2,5.57,4.54,9.41,4.6,3.46.05,6.93,0,10.39,0,.27,0,.58-.06.79.05.25.14.56.43.56.66,0,.24-.29.55-.54.69-.2.12-.52.04-.78.04-3.52,0-7.04,0-10.57,0-6.12.01-10.86,4.34-11.3,10.43-.18,2.41-.16,4.84-.19,7.27-.03,2.4,0,4.79,0,7.28ZM6.31,36.04c.94,1.14,1.97,2.44,3.06,3.68.42.48.4.84.13,1.41-.69,1.46-1.31,2.95-1.86,4.46-.4,1.12-.57,1.32-1.8,1.41-1.47.11-2.93.24-4.45.37v6.45c1.82.28,3.52.51,5.19.84.34.07.71.48.87.82.73,1.57,1.35,3.18,2.09,4.74.26.54.29.87-.14,1.31-1.18,1.24-2.32,2.52-3.63,3.97,1.63,1.44,3.22,2.84,4.87,4.29.99-.8,2.23-1.75,3.41-2.78.66-.57,1.19-.58,1.98-.18,5.3,2.77,10.79,3.4,16.46,1.19,7.33-2.86,11.91-10.07,11.64-18.23-.1-3.05-.9-5.87-2.55-8.43-.31-.49-.33-.88.05-1.35,1.11-1.37,2.19-2.76,3.31-4.17-1.58-1.51-3.13-3-4.69-4.48-1.28,1.08-2.53,2.11-3.76,3.18-.48.42-.92.46-1.52.19-1.69-.76-3.42-1.42-5.11-2.17-.24-.11-.49-.46-.52-.73-.22-1.86-.39-3.73-.57-5.58h-6.51c-.13,1.62-.29,3.2-.38,4.79-.05.89-.33,1.41-1.27,1.72-1.5.49-2.98,1.11-4.39,1.83-.71.36-1.15.32-1.71-.19-1.19-1.06-2.42-2.06-3.78-3.21-1.46,1.61-2.89,3.17-4.4,4.84ZM71.46,32.99c1.31-4.05,3.91-6.68,7.76-8.25-3.95-1.43-6.44-4.14-7.77-8.15-1.25,4.07-3.85,6.71-7.83,8.15,4.02,1.47,6.53,4.18,7.84,8.25ZM51.64,77.73c1.83,0,3.37-1.52,3.34-3.29-.02-1.61-1.6-3.17-3.2-3.18-1.82,0-3.29,1.48-3.29,3.33,0,1.72,1.43,3.15,3.14,3.14ZM71.51,51.96c-1.79-.02-3.1,1.18-3.13,2.89-.03,1.91,1.36,3.4,3.18,3.41,1.7,0,3.05-1.32,3.06-3,.01-1.79-1.39-3.28-3.11-3.3Z"/>
    <path d="M79.25,18.23c-.74,0-1.1-.52-.83-1.03.13-.26.36-.47.56-.68,1.97-2,3.95-3.99,5.93-5.98.16-.17.35-.39.55-.42.26-.03.62.02.79.19.15.16.17.53.12.78-.04.21-.24.4-.4.57-2.02,2.04-4.04,4.08-6.07,6.1-.22.22-.5.37-.65.47Z"/>
    <path d="M79.04,31.28c.3.22.55.37.75.57,2.05,2.04,4.1,4.09,6.13,6.14.37.37.88.79.33,1.34-.55.55-1,.12-1.42-.3-2.02-2.03-4.06-4.04-6.05-6.1-.25-.25-.37-.71-.38-1.08,0-.17.38-.36.64-.58Z"/>
    <path d="M64.57,17.34c.03.64-.49,1.04-.96.85-.18-.07-.35-.22-.5-.36-2.07-2.1-4.14-4.21-6.21-6.31-.06-.06-.17-.13-.17-.2-.01-.36,0-.73,0-1.1.34.04.77-.03.99.15.66.54,1.23,1.19,1.83,1.79,1.48,1.48,2.96,2.96,4.44,4.46.24.24.43.54.57.72Z"/>
    <path d="M57.05,39.64c-.19-.15-.48-.26-.52-.42-.06-.25-.04-.61.11-.8.42-.53.93-1,1.4-1.48,1.6-1.62,3.21-3.23,4.82-4.85.1-.1.21-.21.32-.31.38-.37.79-.56,1.21-.07.4.45.15.79-.2,1.14-2.04,2.02-4.08,4.04-6.11,6.07-.15.15-.28.31-.45.43-.16.11-.35.18-.59.3Z"/>
    <path d="M25.45,62.5c-6.56,0-11.61-5.16-11.64-11.92-.04-6.43,5.04-11.55,11.47-11.57,6.63-.01,11.82,5.15,11.83,11.77.02,6.51-5.17,11.72-11.67,11.72ZM25.58,61.11c5.63,0,10.13-4.58,10.13-10.33,0-5.73-4.45-10.26-10.01-10.37-5.43-.1-10.51,4.13-10.56,10.13-.05,5.9,4.6,10.57,10.44,10.57Z"/>
  </g>
</svg>