<?xml version="1.0" encoding="UTF-8"?>
<svg id="_レイヤー_2" data-name="レイヤー 2" xmlns="http://www.w3.org/2000/svg" viewBox="0 0 91.37 79.15">
  <g id="_レイヤー_1-2" data-name="レイヤー 1">
    <path d="M61.12,43.5c6.72-11.26,13.41-22.45,20.15-33.73-1.21-.67-2.39-1.27-3.52-1.96-.36-.22-.78-.65-.81-1.01-.02-.27.49-.69.85-.86,3.97-1.91,7.95-3.79,11.93-5.68,1.06-.5,1.48-.27,1.5.88.06,4.24.13,8.47.15,12.71,0,.51-.29,1.02-.45,1.53-.51-.17-1.07-.25-1.53-.52-.88-.51-1.7-1.11-2.63-1.73-.26.41-.5.8-.74,1.19-6.82,11.5-13.68,22.97-20.43,34.51-1.67,2.85-4.52,2.86-6.5,1.42-5.51-3.99-11.14-7.8-16.79-11.74-1.46,1.74-2.9,3.46-4.36,5.18-5.2,6.14-10.41,12.28-15.62,18.43-.38.44-.78.86-1.35.43-.54-.4-.32-.86.06-1.3,2.44-2.86,4.86-5.72,7.28-8.59,4.31-5.11,8.61-10.22,12.91-15.34.67-.79.96-.82,2-.09,5.52,3.86,11.05,7.72,16.58,11.57.49.34,1.01.71,1.57.86,1.08.3,1.97-.22,2.66-1.38,4.07-6.85,8.15-13.7,12.22-20.55,3.08-5.19,6.13-10.39,9.2-15.58.63-1.06.9-1.11,1.95-.43.76.49,1.53.98,2.31,1.48V2.04c-3.51,1.66-6.87,3.25-10.35,4.9,1.03.57,1.94,1.08,2.86,1.59.96.53,1.05.85.48,1.82-3.99,6.72-7.96,13.44-11.97,20.14-2.77,4.63-5.58,9.24-8.37,13.86-.73,1.21-1.02,1.27-2.17.47-5.59-3.87-11.19-7.74-16.78-11.6-1.58-1.09-2.06-1.02-3.29.42-7.52,8.81-15.05,17.62-22.57,26.43-.41.48-.87.87-1.43.35-.55-.51-.11-.96.26-1.38,7.58-8.88,15.17-17.77,22.74-26.66,1.45-1.7,3.06-1.91,5.04-.55,5.36,3.7,10.72,7.41,16.08,11.12.26.18.52.34.88.57Z"/>
    <path d="M6.75,38.26c1.47,0,2.83-.04,4.19.03.41.02.92.25,1.18.56.13.16-.11.76-.32,1.06-1.56,2.21-3.15,4.39-4.73,6.58-.73,1.01-1.1,1.01-1.86-.02-1.61-2.17-3.24-4.33-4.82-6.52-.24-.34-.49-.94-.34-1.22.15-.29.77-.46,1.19-.47,1.3-.06,2.6-.02,3.89-.02.28-1.93.47-3.82.84-5.68C9.2,16.27,21.75,5.37,35.76,2.49c11.73-2.41,22.51-.04,32.21,7,1.46,1.06,2.74,2.36,4.09,3.57.38.34.64.78.19,1.24-.49.5-.89.18-1.29-.21-5.89-5.79-12.93-9.34-21.11-10.47-9.31-1.28-18.12.21-26.1,5.37-9.23,5.96-14.71,14.44-16.62,25.25-.12.66-.16,1.32-.22,1.99-.06.63-.1,1.27-.16,2.04ZM6.74,39.94c.07,1.34.13,2.58.2,4.02,1.04-1.44,1.94-2.68,2.91-4.02h-3.11ZM5.17,39.98h-2.85c1.02,1.36,1.96,2.63,2.91,3.89.06-.03.11-.06.17-.09-.08-1.25-.15-2.51-.23-3.8Z"/>
    <path d="M44.39,79.15c-16.52-1.08-28.73-8.31-36.01-23.23-.06-.11-.11-.23-.16-.35-.23-.53-.41-1.09.29-1.37.69-.28.93.27,1.17.78,5.48,11.97,14.88,19.16,27.62,21.73,11.36,2.3,21.58-.77,30.55-8,6.41-5.17,10.7-11.77,12.73-19.75,1.67-6.57,1.41-13.16-.51-19.66-.18-.6-.24-1.1.44-1.31.64-.2.98.28,1.09.78.49,2.26,1.06,4.51,1.34,6.8.72,5.96.08,11.85-2.09,17.43-5.23,13.44-14.99,21.82-29.02,25.13-2.48.59-5.08.7-7.43,1.01Z"/>
  </g>
</svg>