<?xml version="1.0" encoding="UTF-8"?>
<svg id="_レイヤー_2" data-name="レイヤー 2" xmlns="http://www.w3.org/2000/svg" viewBox="0 0 79.13 79.15">
  <g id="_レイヤー_1-2" data-name="レイヤー 1">
    <path d="M38.88,0c9.73-.03,18.04,2.39,25.36,7.79,7.44,5.5,12.42,12.72,14.2,21.86,1.95,10.02-.25,19.21-6.15,27.52-1.89,2.66-4.13,5-6.68,7.04-.35.28-.36.52-.28.93.86,4.3,1.69,8.6,2.5,12.91.06.33-.04.87-.26,1.02-.21.15-.74,0-1.03-.17-4.23-2.51-8.44-5.06-12.67-7.56-.33-.19-.86-.27-1.22-.16-5.19,1.59-10.46,2.31-15.89,1.9-7.98-.6-15.29-3.04-21.75-7.79-7.41-5.45-12.41-12.61-14.24-21.67-2.19-10.81.25-20.64,7.19-29.25C13.67,7.33,21.12,3.02,29.92,1.02,33.08.3,36.31-.04,38.88,0ZM66.38,77.39c.02-.11.05-.16.04-.2-.78-4.05-1.52-8.1-2.38-12.13-.19-.91.19-1.31.76-1.78,7.67-6.38,12.16-14.44,12.96-24.46.38-4.72-.24-9.3-1.89-13.72-3.31-8.85-9.36-15.25-17.71-19.54C50.06,1.39,41.46.48,32.58,1.82c-7.76,1.17-14.63,4.41-20.34,9.84C3.53,19.95-.04,30.14,1.72,42.01c1.21,8.18,5.31,14.91,11.51,20.31,7.07,6.15,15.44,9.15,24.73,9.61,4.98.25,9.86-.48,14.62-2.01.46-.15,1.12-.1,1.54.14,2.06,1.16,4.07,2.41,6.1,3.63,2.05,1.23,4.09,2.46,6.16,3.69Z"/>
    <path d="M28.68,37.53c2.5-2.45,5.51-3.81,9.19-4.29-2.51-.71-4.33-2.04-5.57-4.09-1.26-2.09-1.54-4.36-.9-6.69,1.08-3.93,4.56-6.4,8.7-6.28,3.61.11,6.88,2.89,7.75,6.65.54,2.32.11,4.49-1.14,6.5-1.23,1.99-3.04,3.22-5.48,3.89,3.71.45,6.73,1.86,9.29,4.27,1.31-1.32,2.81-2.26,4.73-2.73-2.45-1.31-3.85-3.23-3.98-5.96-.1-2.04.65-3.76,2.12-5.16,2.78-2.65,7.41-2.36,9.85.63,2.3,2.82,2.31,7.78-2.39,10.48,2.97.89,5.24,2.65,6.8,5.3.9,1.55,1.4,3.22,1.38,5.03-.01,1.82,0,3.64,0,5.47,0,.95-.15,1.11-1.1,1.11-3.91,0-7.82,0-11.72,0-.29,0-.58,0-.97,0,0,1.16,0,2.29,0,3.41,0,.91-.14,1.05-1.07,1.05-9.66,0-19.33,0-28.99,0-.86,0-1.1-.24-1.1-1.14,0-1.08,0-2.16,0-3.32-1.28,0-2.51,0-3.74,0-3.01,0-6.02,0-9.03,0-1.03,0-1.23-.2-1.23-1.25,0-1.77,0-3.54,0-5.31,0-4.57,3.45-9.04,7.88-10.22.09-.02.19-.05.44-.12-1.66-.86-2.8-2.04-3.44-3.66-.64-1.63-.69-3.3-.07-4.93.85-2.24,3.2-4.62,7.1-4.3,2.4.2,5.03,2.33,5.66,4.85.63,2.51.27,5.77-3.65,8.04,1.82.54,3.43,1.37,4.72,2.77ZM54.01,54.83c-.08-2.81.12-5.59-.29-8.27-1.21-7.96-8.64-13.54-17.24-11.78-6.63,1.36-11.15,7.47-11.09,13.73.02,1.87,0,3.75,0,5.62,0,.23.03.45.05.7h28.57ZM27.85,38.44c-2.64-2.34-5.59-3.36-9-2.44-4.06,1.1-6.71,3.7-7.36,7.93-.29,1.88-.13,3.84-.16,5.76,0,.22.03.45.05.64h12.41c.34-2.16.55-4.25,1.01-6.29.47-2.08,1.63-3.86,3.06-5.6ZM67.74,50.38c0-1.62,0-3.17,0-4.72.03-3.85-1.7-6.71-4.94-8.66-3.69-2.22-8.63-1.56-11.4,1.51,2.9,3.41,4.06,7.43,3.81,11.87h12.53ZM46.7,24.75c.06-3.96-3.11-7.23-7.08-7.29-3.76-.06-7.16,3.21-7.22,6.94-.07,4.14,3,7.47,6.83,7.65,3.77.18,7.56-3.07,7.48-7.31ZM52.52,28.49c0,3.11,2.41,5.52,5.5,5.51,2.96-.01,5.45-2.54,5.4-5.47-.05-2.97-2.46-5.37-5.4-5.37-3.02,0-5.5,2.41-5.5,5.34ZM21.19,23.15c-3.06,0-5.46,2.35-5.46,5.34,0,3.1,2.43,5.56,5.46,5.54,2.91-.01,5.34-2.48,5.34-5.43,0-3.05-2.35-5.45-5.35-5.45Z"/>
  </g>
</svg>