<?xml version="1.0" encoding="UTF-8"?>
<svg id="_レイヤー_2" data-name="レイヤー 2" xmlns="http://www.w3.org/2000/svg" viewBox="0 0 67.69 79.15">
  <g id="_レイヤー_1-2" data-name="レイヤー 1">
    <path d="M67.69,21.2c-.07,1.86-.1,4.74-.3,7.61-.6,9.08-2.65,17.79-7,25.86-3.15,5.85-7.21,10.99-12.27,15.32-4.16,3.57-8.66,6.65-13.63,8.99-.48.23-.89.23-1.36,0-4.45-2.14-8.5-4.89-12.31-8.01-3.71-3.03-7-6.46-9.8-10.36-4.65-6.48-7.61-13.68-9.26-21.47-.68-3.21-1.22-6.44-1.38-9.71C.15,24.86.12,20.27.01,15.69c-.02-.85-.02-1.71,0-2.56.02-.81.55-1.25,1.35-1.16,5.03.58,9.93-.04,14.74-1.58,5.89-1.88,11.07-4.99,15.75-8.98.42-.36.85-.72,1.28-1.07.56-.47.93-.43,1.53.03,2.21,1.71,4.36,3.53,6.68,5.07,4.82,3.21,10.12,5.31,15.86,6.26,3.02.5,6.05.58,9.09.31,1.03-.09,1.41.26,1.41,1.28,0,2.3,0,4.6,0,7.92ZM1.87,14c0,1.62,0,3.14,0,4.66-.03,5.36.1,10.72.94,16.03.73,4.59,1.85,9.07,3.55,13.41,2.18,5.57,5.26,10.59,9.16,15.11,2.59,3,5.52,5.65,8.7,8.03,2.79,2.09,5.69,4,8.82,5.55.58.29,1.06.32,1.65.01,6.1-3.11,11.53-7.12,16.21-12.11,3.53-3.77,6.43-7.98,8.72-12.61,4.05-8.21,5.75-16.98,6.1-26.04.15-3.8.09-7.61.13-11.42,0-.2,0-.39,0-.61-12.43.68-22.84-3.91-32-11.8C24.65,10.14,14.28,14.75,1.87,14Z"/>
    <path d="M30.29,45.58c.8-.8,1.52-1.51,2.24-2.23,4.63-4.66,9.26-9.32,13.89-13.98,1.36-1.37,2.7-2.76,4.05-4.13.56-.57,1.37-.43,1.63.26.17.47-.04.82-.36,1.14-1.64,1.67-3.26,3.35-4.91,5.01-5.17,5.19-10.36,10.37-15.54,15.56-.09.09-.18.19-.28.27-.5.46-1.04.47-1.52-.02-3.3-3.37-6.59-6.74-9.88-10.11-.45-.46-.46-1.05-.05-1.42.44-.41.95-.36,1.46.16,2.88,2.92,5.76,5.84,8.63,8.77.22.22.41.47.63.73Z"/>
  </g>
</svg>