<?xml version="1.0" encoding="UTF-8"?>
<svg id="_レイヤー_2" data-name="レイヤー 2" xmlns="http://www.w3.org/2000/svg" viewBox="0 0 107.25 104.63">
  <defs>
    <style>
      .cls-1 {
        fill: #6e8636;
      }

      .cls-2 {
        fill: #bca752;
      }

      .cls-3 {
        fill: #d68935;
      }

      .cls-4 {
        fill: #416ea3;
      }
    </style>
  </defs>
  <g id="_レイヤー_1-2" data-name="レイヤー 1">
    <path class="cls-1" d="M66.43,8.65c7.88,2.32,14.05,6.79,17.37,14.36,4.86,11.12,3.94,22.39-.15,33.51-.06.24-.19.46-.39.62-1.78-3.94-3.47-8.03-5.48-11.89-2.1-3.96-3.54-8.24-4.25-12.66-.1-.74-.28-1.46-.54-2.16l-.77-.15c-.62,1.7-1.16,3.32-1.78,4.86-5.64-1.39-11.12-3.63-16.68-3.94-5.56-.31-11.27,1.54-17.06,2.47l-.62-2.24-.46.15c-1.16.77-2.16,1.85-3.4,2.24-3.86,1.24-7.88,2.24-11.81,3.4-4.56-11.12,9.65-27.64,20.31-27.95.23,2.39.39,4.79.69,7.18,1.16,6.87,7.03,12.05,13.13,11.5,4.71-.46,9.19-4.48,10.5-9.88.69-3.01.93-6.02,1.39-9.42Z"/>
    <path class="cls-2" d="M39.09,86.79l-1.39,1.54c1.54,1.24,3.09,2.32,4.56,3.63,2.7,2.39,5.33,4.86,7.95,7.34-9.03,6.33-22.39,8.96-34.82-3.17,2.08-1.47,4.32-2.78,6.33-4.4,3.77-2.87,5.76-7.49,5.25-12.2-.69-7.41-8.03-11.66-15.91-9.03-2.78.93-5.48,2.16-8.49,3.4-1.39-6.64-1.39-13.05,2.01-19.15,4.86-8.8,12.59-14.05,21.93-17.14,3.47-1.16,7.1-2.01,10.58-2.93-3.09,4.17-5.87,8.42-9.11,12.28-3.24,3.86-6.72,7.34-9.88,11.43l6.49-1.47c-1.47,13.2,5.64,22.01,14.52,29.88Z"/>
    <path class="cls-4" d="M84.8,58.06l2.32.54c-.15-1.08-.69-2.08-.54-2.93,1-4.48,2.24-8.88,3.32-13.28,10.66,3.09,19.69,18.53,14.28,31.12-2.39-.93-4.71-1.93-7.1-2.78-3.63-1.31-7.18-1.54-10.73.31-6.33,3.24-8.42,9.65-4.63,15.67,1.7,2.7,4.4,4.79,6.79,7.03.93.93,2.24,1.39,3.55,2.16-6.41,6.02-13.74,9.19-22.55,8.03-11.58-1.54-20.31-7.88-27.95-16.76h1c4.63,1.62,9.42,1.47,14.28,1.62,3.47.08,6.95.93,10.35,1.47l2.39.62.39-.46-3.4-3.94,5.02-3.71c5.25-4.02,8.42-9.42,10.19-15.75.85-3.01,2.01-5.95,3.01-8.96Z"/>
    <path class="cls-3" d="M53.69,34.36c13.59-.46,25.79,11.43,25.48,25.87-.26,14.16-11.94,25.43-26.1,25.17-14.16-.26-25.43-11.94-25.17-26.1.23-14.36,12.59-25.48,25.79-24.94ZM53.53,80.69c11.39.09,20.69-9.07,20.77-20.46,0-.21,0-.42,0-.62,0-11.58-10.42-20.92-21.39-20.46-10.96.46-20.46,9.65-20.38,20.85.13,11.5,9.51,20.74,21,20.69Z"/>
    <path class="cls-2" d="M14.23,71.96c3.94-.08,7.34,1.16,9.34,4.79s1.16,7.1-1,10.42c-3.47,5.33-10.81,7.95-16.45,6.1-4.17-1.39-8.18-7.18-4.94-12.66s6.87-8.57,13.05-8.65Z"/>
    <path class="cls-4" d="M104.57,77.75c2.47,3.09,3.55,6.49,1.85,10.27-1.7,3.78-4.94,5.25-8.88,5.56-6.41.46-12.97-3.86-14.82-9.5-1.39-4.17.77-10.81,7.1-11.58s10.96.31,14.75,5.25Z"/>
    <path class="cls-1" d="M44.58,5.87c1.85-3.47,4.48-5.87,8.65-5.87s6.87,2.32,8.72,5.79c3.01,5.64,1.78,13.36-2.55,17.45-4.32,4.09-10.19,3.71-13.51-1.78-3.32-5.48-4.17-10.11-1.31-15.6Z"/>
    <path d="M42.11,67.1v-3.63l10.81-15.37h5.33v14.98h2.93v4.02h-2.93v4.71h-4.56v-4.71h-11.58ZM53.92,53.04l-6.72,10.04h6.72v-10.04Z"/>
  </g>
</svg>