<?xml version="1.0" encoding="UTF-8"?>
<svg id="_レイヤー_2" data-name="レイヤー 2" xmlns="http://www.w3.org/2000/svg" viewBox="0 0 107.25 104.66">
  <defs>
    <style>
      .cls-1 {
        fill: #6e8636;
      }

      .cls-2 {
        fill: #bca752;
      }

      .cls-3 {
        fill: #d68935;
      }

      .cls-4 {
        fill: #416ea3;
      }
    </style>
  </defs>
  <g id="_レイヤー_1-2" data-name="レイヤー 1">
    <path class="cls-1" d="M66.49,8.57c7.88,2.39,14.06,6.87,17.3,14.44,4.87,11.12,4.02,22.4-.08,33.52-.09.23-.22.44-.39.62-1.85-3.94-3.48-8.03-5.48-11.9-2.09-3.97-3.52-8.24-4.25-12.67-.16-.73-.37-1.46-.62-2.16l-.7-.15-1.78,4.87c-5.64-1.39-11.2-3.63-16.76-3.94-5.56-.31-11.28,1.54-17.07,2.39l-.54-2.16-.54.15c-1.16.77-2.16,1.85-3.4,2.24-3.86,1.24-7.8,2.24-11.74,3.4-4.56-11.12,9.66-27.65,20.24-27.96.23,2.39.39,4.79.77,7.11,1.08,6.95,7.03,12.13,13.05,11.51,4.79-.39,9.19-4.4,10.5-9.81.7-3.01.93-6.02,1.47-9.5Z"/>
    <path class="cls-2" d="M39.14,86.82l-1.47,1.54c1.54,1.24,3.17,2.32,4.63,3.63l7.96,7.26c-9.04,6.41-22.48,9.04-34.91-3.09,2.18-1.36,4.3-2.83,6.33-4.4,3.86-3.09,5.79-7.18,5.33-12.2-.77-7.49-8.11-11.66-15.91-9.11-2.78,1-5.48,2.24-8.57,3.48-1.39-6.64-1.39-13.05,2.01-19.16,4.94-8.81,12.59-14.14,21.94-17.15,3.55-1.16,7.11-2.01,10.58-2.94-3.09,4.17-5.87,8.42-9.11,12.28-3.24,3.86-6.72,7.34-9.81,11.43l6.41-1.47c-1.47,13.13,5.64,22.01,14.6,29.89Z"/>
    <path class="cls-4" d="M84.79,58.09l2.39.54c-.23-1.08-.77-2.09-.54-2.94,1-4.48,2.16-8.88,3.32-13.29,10.58,3.09,19.62,18.46,14.21,31.13-2.32-.93-4.71-1.93-7.11-2.78-3.63-1.39-7.18-1.54-10.74.31-6.26,3.24-8.42,9.66-4.63,15.68,1.7,2.7,4.4,4.79,6.8,7.03,1.13.85,2.35,1.57,3.63,2.16-6.49,6.02-13.75,9.19-22.63,8.03-11.59-1.54-20.31-7.88-27.88-16.76h1c4.63,1.62,9.42,1.47,14.21,1.54,3.48.08,6.95,1,10.43,1.54l2.39.62.31-.46-3.32-3.94,5.02-3.71c5.25-4.02,8.34-9.42,10.12-15.76.85-3.01,2.01-5.95,3.01-8.96Z"/>
    <path class="cls-3" d="M53.66,34.37c13.67-.46,25.8,11.43,25.49,25.88.48,14.15-10.61,26.02-24.77,26.49-14.15.48-26.02-10.61-26.49-24.76-.03-.89-.01-1.77.05-2.66.23-14.44,12.51-25.49,25.72-24.95ZM53.59,80.72c11.66,0,20.78-9.35,20.78-21.09s-10.43-20.93-21.4-20.47-20.47,9.58-20.39,20.86c.09,11.52,9.49,20.79,21.01,20.7,0,0,0,0,0,0Z"/>
    <path class="cls-2" d="M14.19,71.99c4.02-.08,7.34,1.08,9.35,4.79,2.01,3.71,1.24,7.11-.93,10.43-3.48,5.33-10.89,7.96-16.53,6.1-4.09-1.47-8.11-7.18-4.94-12.67s6.87-8.57,13.05-8.65Z"/>
    <path class="cls-4" d="M104.64,77.71c2.39,3.17,3.48,6.57,1.78,10.35-1.7,3.78-4.94,5.25-8.88,5.56-6.41.46-12.9-3.86-14.83-9.5-1.31-4.17.85-10.81,7.18-11.59s10.97.31,14.75,5.18Z"/>
    <path class="cls-1" d="M44.63,5.87c1.85-3.48,4.48-5.87,8.65-5.87s6.8,2.32,8.73,5.79c3.01,5.64,1.78,13.36-2.63,17.46-3.17,2.94-10.2,3.71-13.44-1.78s-4.25-10.12-1.31-15.6Z"/>
    <path d="M59.38,52.29h-10.27v5.41c.5-.6,1.14-1.08,1.85-1.39.84-.31,1.73-.47,2.63-.46,1.47-.09,2.93.29,4.17,1.08,1.05.69,1.86,1.69,2.32,2.86.54,1.13.8,2.38.77,3.63.11,2.16-.64,4.27-2.09,5.87-1.55,1.55-3.68,2.37-5.87,2.24-2.09.11-4.15-.55-5.79-1.85-1.44-1.16-2.34-2.87-2.47-4.71h4.33c.19.82.65,1.56,1.31,2.09.75.5,1.65.75,2.55.7,1.06.08,2.09-.35,2.78-1.16.66-.89.98-1.98.93-3.09.07-1.08-.26-2.16-.93-3.01-.79-.69-1.81-1.06-2.86-1-.78-.03-1.55.22-2.16.7-.64.41-1.11,1.04-1.31,1.78h-4.25v-13.59h14.37v3.94Z"/>
  </g>
</svg>