<?xml version="1.0" encoding="UTF-8"?><svg id="_レイヤー_2" xmlns="http://www.w3.org/2000/svg" viewBox="0 0 71.33 59.03"><g id="_レイヤー_1-2"><path d="M71.32,19.42c0-3.02-1.42-5.2-4.09-6.32-.91-.38-1.92-.55-3.27-.55h0c-15.19.01-30.37,0-45.55,0h-7.01c-1.24,0-1.51-.63-1.61-1.1-.04-.18,0-.45.1-.74.13,0,.29,0,.37,0,8.15,0,16.3,0,24.46,0h4.76s26.2,0,26.2,0h.33c.62,0,1.24,0,1.87.01.15,0,.62.02.97-.33.23-.23.34-.55.33-.95-.02-.65-.02-1.3,0-1.95.04-1.47-.31-2.79-1.02-3.95-1.47-2.37-3.38-3.53-5.85-3.53h-.01C44.22.03,26.16,0,8.12.02c-1.62,0-3.12.42-4.44,1.26C1.29,2.78.02,4.88.02,7.35c-.03,14.28-.01,28.56.01,42.84,0,.96.15,1.92.29,2.73.65,3.75,4.42,6.07,7.53,6.08,10.25.02,20.49.02,30.74.02,2.71,0,5.42,0,8.13,0h16.11c1.21,0,2.38,0,3.6-.41.93-.32,2-.75,2.93-1.59,1.32-1.2,1.97-2.79,1.97-4.87v-13.19c0-6.51.01-13.03,0-19.54ZM63.29,56.83h0c-5.85,0-11.71,0-17.56,0-12.37,0-25.17,0-37.75-.05-2.53-.01-5.23-1.58-5.57-5.06-.07-.67-.1-1.35-.1-2.02v-13.46c0-9.54,0-19.07-.03-28.61,0-2.56,2.14-4.63,4.13-5.08,1.16-.26,2.28-.3,3.22-.3h11.51c13.65,0,27.29,0,40.94-.01h0c1.97,0,3.39.97,4.36,2.96.49,1.01.46,2.11.42,3.28-.06,0-.12,0-.18,0h-28.65s-28.43,0-28.43,0c-1.15,0-1.41.17-1.84,1.26-.33.83-.38,1.65-.16,2.44.47,1.63,1.82,2.6,3.62,2.6,10.09,0,20.18,0,30.28,0h21.67c.87,0,1.72.07,2.52.2,1.81.29,3.25,1.94,3.28,3.75.05,2.88.07,5.77.08,8.65,0,7.49,0,14.99,0,22.48v2.25c0,2.35-.94,3.61-3.23,4.35-.81.26-1.64.39-2.53.39Z"/><path d="M59.53,30.71c-2.95-.05-5.23,2.21-5.29,5.26-.06,2.94,2.02,5.12,5.17,5.44h.06s.06,0,.06,0c3.16-.27,5.22-2.34,5.26-5.27.04-3.05-2.22-5.38-5.26-5.43ZM62.5,35.6c.05,1.07-.29,2.07-.93,2.75-.48.5-1.09.78-1.73.79h-.03c-.95,0-1.79-.32-2.38-.9-.58-.57-.89-1.35-.9-2.25v-.06c-.06-.63.23-1.35.78-1.95.58-.63,1.34-1.03,2-1.03h.01c1.92,0,3.13,1.35,3.19,2.66Z"/></g></svg>