<?xml version="1.0" encoding="UTF-8"?>
<svg id="_レイヤー_2" data-name="レイヤー 2" xmlns="http://www.w3.org/2000/svg" viewBox="0 0 104.67 18.15">
  <defs>
    <style>
      .cls-1 {
        fill: #be2a26;
      }

      .cls-2 {
        fill: #1831a2;
      }

      .cls-3 {
        fill: #ee9e3c;
      }
    </style>
  </defs>
  <g id="_レイヤー_1-2" data-name="レイヤー 1">
    <g id="Group_5473" data-name="Group 5473">
      <path id="Vector" class="cls-2" d="M93.5,17.79c-1.44,0-2.74-.02-4.04,0-.64.02-.88-.3-.98-.88-.2-1.09-.24-2.19-.23-3.3,0-.55-.03-1.11-.11-1.65-.13-.98-.86-1.12-1.67-1.13-.97,0-.79.71-.79,1.29-.02,1.51-.04,3.01,0,4.52.02.8-.17,1.14-1.07,1.17-3.52.12-3.52.15-3.52-3.39,0-4.22.03-8.44-.02-12.66-.02-1.09.23-1.54,1.41-1.48,1.8.09,3.62,0,5.42.03,1.95.02,3.85.38,4.57,2.46.7,2.05.85,4.18-1.03,5.83-.46.4-.54.65,0,1.01,1.18.81,1.31,2.04,1.36,3.33.06,1.58-.36,3.23.69,4.84h0ZM86.54,3.64c-.61-.09-.9.19-.89.83.01.65,0,1.3,0,1.94.01,1.26.68,1.71,1.77,1.11.96-.52,1.13-1.45.93-2.46-.19-.96-.79-1.46-1.82-1.43h0Z"/>
      <path id="Vector_2" data-name="Vector 2" class="cls-3" d="M13.01,9.2c0-2.46.04-4.92-.02-7.38-.03-1.08.25-1.56,1.43-1.5,1.75.08,3.52,0,5.27.03,2.89.04,4.52,1.37,5.02,4.18.54,3.04.56,6.1-.02,9.14-.52,2.72-2.19,4.09-4.94,4.13-1.86.02-3.72-.04-5.58.02-.95.03-1.21-.33-1.19-1.23.05-2.46.02-4.92.02-7.38h0ZM20.42,9.19c-.08-1.5.04-3.02-.38-4.49-.25-.87-.92-1.09-1.76-1.07-.68.02-.67.46-.68.92,0,3.01.01,6.01-.01,9.02,0,.78.38.92,1.03.89,1.01-.04,1.44-.67,1.54-1.53.14-1.24.18-2.49.26-3.74h0Z"/>
      <path id="Vector_3" data-name="Vector 3" class="cls-2" d="M33.77,12.49c1.06,0,2.27-.35,2.3,1.43,0,.65.69.99,1.34.98.67-.02,1.11-.47,1.27-1.1.27-1.03-.21-1.78-1.05-2.28-.69-.41-1.43-.72-2.17-1.03-3.29-1.4-4.39-3.74-3.39-7.15.41-1.41,1.27-2.39,2.65-2.85,1.87-.63,3.77-.62,5.61.06,1.63.6,2.8,2.58,2.62,4.21-.01.1.02.25-.04.29-1.02.79-2.21.23-3.31.4-.54.08-.82-.12-.89-.72-.08-.71-.29-1.42-1.2-1.48-.65-.04-1.01.36-1.24.91-.35.84.02,1.47.63,1.99.89.76,2.02,1.09,3.07,1.56,1.9.87,3.23,2.17,3.42,4.39.29,3.45-1.15,5.26-4.58,5.86-1.48.26-2.91.11-4.33-.23-1.85-.44-3.13-2.42-3.01-4.37.03-.55.21-.86.79-.86h1.51,0Z"/>
      <path id="Vector_4" data-name="Vector 4" class="cls-2" d="M94.14,9.04c0-2.51.03-5.02-.02-7.53-.02-.92.29-1.23,1.21-1.21,2.61.05,5.23.06,7.84,0,1.01-.02,1.3.33,1.27,1.3-.08,2.97.28,2.48-2.45,2.52-.55,0-1.12.08-1.65-.01-1.49-.24-1.77.49-1.7,1.79.05.91.32,1.26,1.24,1.21,1-.06,2.01.04,3.01-.03.95-.06,1.27.33,1.18,1.23-.05.45-.04.91,0,1.36.06.78-.28,1.08-1.06,1.06-1.1-.04-2.21.02-3.32-.02-1.53-.05-.94,1.09-1.01,1.81-.08.74-.19,1.54,1.05,1.46,1.25-.08,2.51.01,3.77-.03.74-.02,1.06.18,1.11,1,.16,2.86.19,2.86-2.68,2.86-2.01,0-4.03-.11-6.03.03-1.52.11-1.86-.45-1.79-1.86.11-2.3.03-4.62.03-6.93h0Z"/>
      <path id="Vector_5" data-name="Vector 5" class="cls-2" d="M72.41,7.32c0,1.56-.04,3.12.01,4.67.04,1.14-.4,2.86,1.31,2.87,1.85.01,1.36-1.78,1.37-2.94.05-3.36.06-6.73,0-10.1-.02-1.1.29-1.49,1.43-1.48,3.06.01,3.06-.04,3.06,2.97v8.44c0,1.16-.11,2.31-.53,3.4-.58,1.55-1.66,2.47-3.31,2.7-.35.05-.69.15-1.04.17-4.31.2-6.6-.85-6.72-5.73-.09-3.56.02-7.13-.04-10.7-.02-1.05.43-1.24,1.34-1.25,3.11-.04,3.11-.07,3.11,3.05v3.92h0Z"/>
      <path id="Vector_6" data-name="Vector 6" class="cls-2" d="M44.28,9.08c0-2.46.04-4.93-.02-7.39-.02-.96.24-1.35,1.26-1.33,2.61.05,5.23.05,7.84,0,.92-.02,1.23.31,1.21,1.23-.06,2.94.23,2.46-2.5,2.5-.7.01-1.41.06-2.11,0-1.17-.11-1.19.62-1.13,1.43.05.75-.29,1.72,1.08,1.63,1.05-.06,2.11.03,3.17-.02.87-.04,1.11.34,1.14,1.16.09,2.41.12,2.41-2.3,2.41-.5,0-1.01.05-1.51-.01-1.25-.17-1.6.32-1.63,1.58-.03,1.4.39,1.9,1.77,1.73.79-.1,1.62.08,2.41-.04,1.6-.24,1.97.45,1.87,1.93-.14,2.16.22,1.92-1.96,1.93-2.46.01-4.93-.03-7.39.02-.91.02-1.23-.25-1.21-1.19.06-2.51.02-5.03.02-7.54h0Z"/>
      <path id="Vector_7" data-name="Vector 7" class="cls-1" d="M9.37,8.69c2.59,1.6,2.39,3.93,1.82,6.23-.56,2.24-2.41,2.92-4.48,3.17-1.27.15-2.52,0-3.74-.31-1.75-.45-3.27-2.91-2.92-4.61.07-.33.21-.61.55-.61,1.11-.03,2.21-.07,3.31,0,.71.05.53.75.62,1.2.14.75.38,1.44,1.26,1.42.88-.02.92-.82,1.03-1.44.35-2.01-.03-2.57-2.1-3.23-1.02-.33-.51-1.17-.59-1.79-.07-.54-.08-1.04.76-1.18,1.56-.25,2.39-2.21,1.58-3.55-.19-.31-.45-.56-.85-.52-.43.04-.89.27-.88.69.03,1.78-1.15,1.62-2.34,1.6-2.36-.04-2.5-.24-1.67-2.49.43-1.17,1.22-1.92,2.37-2.36,1.56-.59,3.17-.56,4.75-.24,1.54.31,2.8,1.07,3.17,2.81.42,1.99.37,3.81-1.65,5.22h0Z"/>
      <path id="Vector_8" data-name="Vector 8" class="cls-2" d="M60.02,9.02c-.06,1.56-.16,3.12.18,4.66.16.73.55,1.26,1.28,1.24.76-.02,1.09-.61,1.17-1.34,0-.05,0-.1.02-.15.27-.85-.27-2.14.51-2.52.87-.42,2.06-.15,3.11-.19.63-.02.85.24.92.88.39,3.68-1.61,6.26-5.28,6.42-3.9.17-5.97-.95-6.41-5.22-.31-3.02-.43-6.03.36-8.99.83-3.08,3.59-4.38,7.41-3.6,2.72.56,4.1,2.77,3.68,5.81-.06.43-.18.66-.61.66-.95,0-1.91.02-2.87,0-.81-.02-.75-.61-.79-1.18-.08-.95.21-2.3-1.28-2.27-1.37.03-1.3,1.35-1.38,2.31-.1,1.15-.02,2.31-.02,3.46h0Z"/>
    </g>
  </g>
</svg>