<?xml version="1.0" encoding="UTF-8"?>
<svg id="_レイヤー_2" data-name="レイヤー 2" xmlns="http://www.w3.org/2000/svg" viewBox="0 0 90.12 34.73">
  <defs>
    <style>
      .cls-1 {
        fill: #3f676b;
      }

      .cls-2 {
        fill: #5fb768;
      }

      .cls-3 {
        fill: #355e63;
      }

      .cls-4 {
        fill: #3a6367;
      }

      .cls-5 {
        fill: #3e666a;
      }

      .cls-6 {
        fill: #365f64;
      }

      .cls-7 {
        fill: #386165;
      }

      .cls-8 {
        fill: #3a6267;
      }

      .cls-9 {
        fill: #376065;
      }
    </style>
  </defs>
  <g id="_レイヤー_1-2" data-name="レイヤー 1">
    <g id="Group_5471" data-name="Group 5471">
      <path id="Vector" class="cls-3" d="M8.04,24.59c-.38-.67-.57-1.41-.84-2.13C4.84,15.99,2.49,9.51.14,3.03c-.23-.63-.23-.61.45-.65,4.54-.26,9.07-.52,13.61-.78,3.42-.2,6.85-.39,10.27-.58,4.55-.26,9.11-.53,13.66-.79,1.27-.07,2.54-.13,3.81-.22.35-.03.51.07.66.4,1.08,2.47,2.18,4.92,3.28,7.38.73,1.63,1.45,3.26,2.18,4.89.09.2.15.36,0,.58-1.43,1.99-2.85,3.98-4.28,5.98-.14-.12-.06-.28-.06-.43,0-2.53-.01-5.06,0-7.59,0-.38-.07-.51-.48-.5-1.43.03-2.86.03-4.29,0-.44,0-.5.15-.5.53.01,3.5,0,6.99,0,10.49,0,.56,0,.55-.5.28-.37-.2-.74-.4-1.14-.51-.41-.11-.7-.24-.61-.78-1.04.45-2.09.59-3.14.7-1.69.18-3.22-.25-4.31-1.61-1.41-1.76-.89-5.09,2.01-5.83,1.66-.42,3.25-.19,4.75.61.36.19.4.09.4-.25-.01-.9-.04-1.79.01-2.69.03-.5-.2-.69-.61-.8-.89-.25-1.81-.34-2.73-.39-1.84-.08-3.66.1-5.39.78-2.4.94-4.12,2.61-4.47,5.24-.51,3.84,1.09,6.51,5.01,7.71,1.6.49,3.25.6,4.91.52.31-.01.46.03.54.38.16.74.49,1.43.91,2.05.23.34.19.46-.21.58-3.86,1.21-7.72,2.45-11.58,3.67-3.4,1.08-6.79,2.16-10.19,3.25-.31.1-.45.09-.57-.25-1.13-3.15-2.27-6.29-3.41-9.43-.05-.13-.07-.27-.1-.41,1.65.09,3.31.01,4.96.04.31,0,.33-.17.32-.4,0-.86,0-1.72,0-2.58,0-1.19,0-1.16,1.2-1.2,1.87-.07,3.7-.35,5.3-1.46,2.39-1.67,2.36-5.35-.05-6.98-1.19-.81-2.53-1.19-3.93-1.23-2.47-.07-4.95-.02-7.42-.05-.37,0-.37.17-.37.45,0,4.48,0,8.96,0,13.43h0ZM41.15,3.3c-1.68-.08-3.22,1.24-3.3,2.84-.08,1.71,1.27,3.18,3,3.26,1.82.08,3.34-1.2,3.42-2.87.09-1.76-1.25-3.14-3.12-3.23h0Z"/>
      <path id="Vector_2" data-name="Vector 2" class="cls-2" d="M40.9,31.29c-.73.02-1.68-.32-2.49-1.19-1.32-1.43-2.51-2.95-3.6-4.56-.46-.68-.27-1.95.71-2.44,1.19-.59,1.91.12,2.7.71.89.67,1.65,1.5,2.41,2.32.33.35.62.33.87-.08,1.72-2.77,3.31-5.62,5.13-8.33,1.73-2.57,3.53-5.08,6-7,1.19-.92,2.5-1.57,4.07-1.48.14,0,.28.02.41.06.12.04.3.02.34.19.04.2-.11.27-.24.37-.89.66-1.68,1.41-2.43,2.23-1.8,1.98-3.29,4.2-4.7,6.47-1.74,2.8-3.32,5.69-4.93,8.56-.62,1.11-1.24,2.23-2,3.25-.57.75-.91.92-2.26.92h0Z"/>
      <path id="Vector_3" data-name="Vector 3" class="cls-3" d="M59.08,10.51c0-1.62.02-3.23-.01-4.85-.01-.49.14-.57.58-.56,1.5.03,3,0,4.5.01,2.59,0,4.06,1.18,4.62,3.72.25,1.16.24,2.35,0,3.5-.46,2.16-2.01,3.43-4.33,3.52-1.67.07-3.35.01-5.02.04-.37,0-.32-.21-.32-.43,0-1.65,0-3.3,0-4.96h0ZM62.38,10.48c0,.49-.02.98,0,1.48.02.48-.23,1.13.11,1.4.35.29.97.05,1.47.01.82-.07,1.28-.49,1.5-1.31.13-.48.13-.97.14-1.46.05-2.38-.65-3.13-2.82-3.06-.02,0-.04,0-.05,0-.28-.04-.36.09-.35.36.01.86,0,1.72,0,2.58Z"/>
      <path id="Vector_4" data-name="Vector 4" class="cls-6" d="M82.04,12.22c.1,0,.21,0,.31-.02.75-.15,1.26-.09,1.52.86.25.92,1.84,1.21,2.6.61.63-.49.58-1.28-.11-1.7-.39-.24-.84-.33-1.28-.44-.83-.2-1.65-.41-2.42-.79-1.18-.58-1.92-1.46-1.82-2.85.09-1.34.87-2.22,2.07-2.63,1.59-.54,3.22-.54,4.82,0,1.14.39,1.74,1.27,1.98,2.44.06.3.02.45-.33.46-.8.02-1.6.08-2.4.14-.22.01-.33-.03-.41-.27-.31-.88-.92-1.23-1.88-1.09-.44.06-.76.29-.81.75-.05.46.31.64.67.75,1.07.31,2.17.49,3.21.89,1.12.43,2.03,1.09,2.28,2.37.37,1.91-.81,3.7-2.79,4.16-1.5.35-3,.31-4.48-.15-1.36-.42-2.16-1.77-2.35-3.08-.04-.26.07-.33.31-.34.43,0,.87-.05,1.3-.08h0s0,0,0,0Z"/>
      <path id="Vector_5" data-name="Vector 5" class="cls-6" d="M71.44,12.22c.12,0,.25,0,.36-.02.73-.14,1.23-.1,1.49.83.26.93,1.79,1.24,2.59.66.69-.5.6-1.4-.17-1.78-.58-.28-1.23-.38-1.84-.54-.81-.21-1.6-.47-2.31-.94-1.76-1.19-1.72-3.69.09-4.81,1.14-.71,2.41-.74,3.68-.69,1,.04,1.97.22,2.77.89.61.51.89,1.19,1.05,1.94.07.31-.04.39-.34.4-.8.03-1.6.08-2.4.14-.22.01-.33-.03-.41-.27-.32-.9-1.08-1.3-1.98-1.07-.37.09-.68.29-.71.73-.03.43.25.63.61.74,1.11.34,2.27.51,3.36.94.93.37,1.73.91,2.08,1.92.69,1.96-.52,4.06-2.66,4.58-1.53.37-3.07.33-4.58-.17-1.45-.48-2.1-1.96-2.27-3.14-.04-.24.11-.24.28-.24.43-.02.87-.05,1.3-.08h0Z"/>
      <path id="Vector_6" data-name="Vector 6" class="cls-5" d="M68.63,19.55c.12-.45.26-.89.34-1.35.06-.32.18-.43.51-.43.95,0,.95,0,.95.97,0,.67-.02,1.33,0,2,.01.37-.17.38-.45.38-.3,0-.44-.06-.43-.4.03-.54,0-1.08-.09-1.64-.15.56-.32,1.12-.45,1.69-.06.29-.21.34-.47.35-.28.01-.4-.09-.46-.35-.14-.59-.3-1.18-.55-1.76,0,.57-.02,1.15,0,1.72.02.36-.15.39-.43.39-.3,0-.44-.05-.43-.4.03-.86.02-1.72,0-2.58,0-.31.1-.37.39-.37.95,0,.95-.02,1.21.92.08.29.15.57.23.86.03,0,.06,0,.09,0h0Z"/>
      <path id="Vector_7" data-name="Vector 7" class="cls-9" d="M85.1,19.37c0-.43.02-.86,0-1.29-.02-.41.26-.3.46-.28.19.02.53-.19.52.27,0,.91,0,1.83,0,2.74,0,.13.03.32-.18.3-.32-.03-.69.18-.95-.23-.31-.5-.65-.97-1.07-1.58,0,.6-.02,1.05,0,1.5.02.43-.28.31-.49.31-.22,0-.5.1-.49-.32.02-.83,0-1.65.02-2.48,0-.17-.16-.49.16-.51.32-.01.7-.2.95.2.3.47.62.92.93,1.38.05,0,.1-.02.15-.02Z"/>
      <path id="Vector_8" data-name="Vector 8" class="cls-4" d="M66.21,19.48c-.02,1.08-.67,1.71-1.75,1.69-1.05-.03-1.72-.7-1.7-1.71.03-1.09.68-1.76,1.72-1.75,1.12,0,1.75.65,1.73,1.77h0ZM65.17,19.49c.01-.6-.22-.94-.64-.96-.46-.02-.72.29-.73.88-.01.61.24.99.68.99.45,0,.68-.3.7-.91Z"/>
      <path id="Vector_9" data-name="Vector 9" class="cls-8" d="M80.89,17.75c.39-.13.54.16.67.55.28.81.56,1.61.89,2.4.17.4.03.45-.31.43-.32-.02-.64.08-.77-.39-.08-.3-1.09-.24-1.25.06-.14.26-.77.46-1,.32-.15-.09-.07-.22-.03-.32.34-.91.71-1.82,1.03-2.74.14-.39.42-.26.77-.3h0ZM80.8,18.76c-.18.22-.2.47-.26.7-.03.12-.19.27-.03.37.14.08.35.08.49,0,.16-.09.05-.25.02-.37-.06-.23-.14-.44-.22-.68h0Z"/>
      <path id="Vector_10" data-name="Vector 10" class="cls-4" d="M60.85,21.16c-.71.05-1.24-.25-1.53-.92-.3-.69-.14-1.69.35-2.11.57-.49,1.24-.49,1.92-.26.16.05.32.17.42.3.13.17.46.43.22.59-.2.13-.6.43-.9-.01-.15-.22-.4-.28-.65-.2-.26.08-.4.28-.43.54-.02.23-.02.46-.01.68.01.31.15.54.46.62.31.08.55-.04.69-.33.27-.57.65-.16.9-.04.28.13,0,.39-.11.55-.31.47-.77.63-1.33.59h0Z"/>
      <path id="Vector_11" data-name="Vector 11" class="cls-7" d="M72.2,17.79c.21,0,.42,0,.63,0,.64.01,1.02.33,1.06.91.05.64-.28,1.07-.92,1.18-.02,0-.03,0-.05,0-.74.11-.77.11-.76.89,0,.48-.29.37-.55.38-.29.01-.54.04-.52-.41.03-.82.03-1.65,0-2.47-.02-.41.11-.53.49-.48.21.03.42,0,.63,0ZM72.5,18.47c-.23-.04-.4.01-.36.29.02.18-.13.47.24.45.24-.01.51-.03.52-.37.01-.28-.19-.34-.4-.37Z"/>
      <path id="Vector_12" data-name="Vector 12" class="cls-4" d="M88.09,17.79c.4,0,.8.02,1.2,0,.35-.03.35.16.34.41,0,.24.02.43-.33.43-.69,0-.69.03-.69.74v1.21c0,.48-.5.76-.94.53-.17-.09-.11-.24-.12-.37,0-.53-.03-1.05,0-1.58.03-.44-.1-.61-.54-.54-.32.05-.51-.02-.5-.43,0-.34.12-.42.43-.4.38.02.76,0,1.15,0h0Z"/>
      <path id="Vector_13" data-name="Vector 13" class="cls-5" d="M74.43,19.43v-1.05c0-.55.35-.78.89-.59.19.07.14.22.15.34,0,.6.02,1.19,0,1.79,0,.3.09.41.39.37.24-.03.49,0,.73,0,.32-.02.51.02.5.43,0,.4-.2.41-.49.41-.59-.01-1.18-.02-1.77,0-.29,0-.41-.07-.39-.38.02-.44,0-.88,0-1.32h0Z"/>
      <path id="Vector_14" data-name="Vector 14" class="cls-4" d="M49.21,22.85c.65-1.11,1.21-2.13,2.01-3.06.29.65.57,1.27.85,1.89.08.18.05.27-.17.34-.86.25-1.72.53-2.69.83Z"/>
      <path id="Vector_15" data-name="Vector 15" class="cls-1" d="M78.6,19.48c0,.44-.01.88,0,1.31.02.47-.32.31-.55.32-.21,0-.51.12-.5-.31.02-.91.02-1.82,0-2.73,0-.4.27-.3.46-.28.21.02.57-.2.58.27,0,.47,0,.95,0,1.42h0Z"/>
      <path id="Vector_16" data-name="Vector 16" class="cls-8" d="M13.2,15.57c0-.49,0-.98,0-1.47,0-.17-.03-.37.24-.37.68,0,1.36-.06,2.01.21.73.31,1.07.82,1.04,1.59-.03.8-.51,1.46-1.25,1.71-.59.2-1.21.12-1.81.14-.24,0-.22-.16-.22-.32v-1.47h0Z"/>
    </g>
  </g>
</svg>