<?xml version="1.0" encoding="UTF-8"?>
<svg id="_レイヤー_2" data-name="レイヤー 2" xmlns="http://www.w3.org/2000/svg" viewBox="0 0 292.44 44.14">
  <defs>
    <style>
      .cls-1 {
        fill: #fff;
      }
    </style>
  </defs>
  <g id="_レイヤー_1-2" data-name="レイヤー 1">
    <g>
      <g>
        <path class="cls-1" d="M22.13,0c2.02,2.04,4.1,4.13,6.19,6.23-5.24,5.23-10.48,10.47-15.69,15.67,2.66,2.72,5.27,5.39,7.87,8.05-2.06,2.06-4.17,4.17-6.22,6.22-4.77-4.69-9.54-9.39-14.29-14.06C7.41,14.7,14.76,7.37,22.13,0Z"/>
        <path class="cls-1" d="M44.16,22.1c-7.29,7.32-14.62,14.69-21.95,22.04-2.09-2.09-4.16-4.17-6.33-6.33,7.37-7.3,14.75-14.62,22.12-21.93,2.01,2.03,4.07,4.11,6.15,6.22Z"/>
        <path class="cls-1" d="M22.04,28.29c-2.02-2.01-4.09-4.08-6.15-6.13,4.72-4.71,9.45-9.44,14.15-14.14,2.03,2.04,4.1,4.11,6.23,6.25-4.73,4.66-9.49,9.35-14.23,14.02Z"/>
      </g>
      <g>
        <polygon class="cls-1" points="76.14 35.47 76.14 11.23 69.02 11.23 62.95 27.05 62.84 27.05 56.77 11.23 49.63 11.23 49.63 35.47 55.06 35.47 55.06 20.33 55.19 20.33 61.12 35.47 64.65 35.47 70.58 20.33 70.71 20.33 70.71 35.47 76.14 35.47"/>
        <rect class="cls-1" x="79.8" y="11.23" width="6.17" height="24.24"/>
        <polygon class="cls-1" points="95.81 21.34 95.92 21.34 105.66 35.47 110.83 35.47 110.83 11.23 104.68 11.23 104.68 25.21 104.58 25.21 94.89 11.23 89.65 11.23 89.65 35.47 95.81 35.47 95.81 21.34"/>
        <polygon class="cls-1" points="120.14 35.47 126.3 35.47 126.3 16.18 132.97 16.18 132.97 11.23 113.45 11.23 113.45 16.18 120.14 16.18 120.14 35.47"/>
        <g>
          <polygon class="cls-1" points="141.18 15.72 147.86 15.72 147.86 35 154.03 35 154.03 15.72 160.7 15.72 160.7 10.76 141.18 10.76 141.18 15.72"/>
          <path class="cls-1" d="M181.87,23.04c.75-1.24,1.13-2.64,1.13-4.2v-.03c0-1.71-.36-3.17-1.08-4.37s-1.76-2.11-3.12-2.74c-1.37-.63-3.03-.94-4.99-.94h-10.5v24.24h6.17v-8.35h3.14l4.15,8.35h6.94l-4.84-9.26c1.25-.56,2.26-1.46,3.01-2.7ZM176.69,18.83c0,1.02-.32,1.83-.97,2.44-.64.61-1.51.92-2.61.92h-3.65v-6.77h3.61c1.09,0,1.96.31,2.62.92.66.62.99,1.43.99,2.45v.03Z"/>
          <path class="cls-1" d="M198.58,10.76h-5.68l-8.16,24.24h6.48l1.51-5.31h7.9l1.51,5.31h6.48l-8.16-24.24h-1.88ZM194,25.24l2.62-9.21h.12l2.63,9.21h-5.36Z"/>
          <path class="cls-1" d="M227.05,12.14c-1.74-.92-3.82-1.38-6.25-1.38h-9.86v24.24h9.86c2.44,0,4.53-.48,6.26-1.45,1.73-.97,3.05-2.37,3.97-4.2.92-1.83,1.38-4.03,1.38-6.61v-.03c0-2.58-.46-4.75-1.38-6.53-.92-1.77-2.25-3.12-3.98-4.04ZM226.13,22.76c0,1.61-.23,2.96-.7,4.03-.46,1.07-1.16,1.88-2.07,2.43-.92.54-2.04.81-3.38.81h-2.87v-14.3h2.87c1.29,0,2.39.27,3.32.8.92.53,1.63,1.32,2.11,2.36.48,1.04.72,2.32.72,3.83v.03Z"/>
          <rect class="cls-1" x="235.42" y="10.76" width="6.17" height="24.24"/>
          <polygon class="cls-1" points="260.3 24.74 260.19 24.74 250.51 10.76 245.26 10.76 245.26 35 251.43 35 251.43 20.88 251.54 20.88 261.27 35 266.45 35 266.45 10.76 260.3 10.76 260.3 24.74"/>
          <path class="cls-1" d="M281.65,21.72v4.37h4.84l-.03.3c-.06.81-.3,1.51-.72,2.1-.43.59-.99,1.05-1.71,1.37-.71.32-1.53.48-2.46.48s-1.69-.17-2.4-.51c-.72-.34-1.33-.83-1.84-1.48-.51-.64-.9-1.43-1.17-2.37-.27-.93-.4-2-.4-3.2v-.02c0-1.57.22-2.9.66-3.99.44-1.09,1.08-1.92,1.91-2.49.83-.57,1.82-.85,2.97-.85s2.19.28,3.02.83c.82.55,1.39,1.32,1.7,2.29l.07.17h6.1l-.03-.2c-.2-1.57-.79-2.97-1.76-4.21-.97-1.24-2.24-2.21-3.8-2.92-1.56-.71-3.33-1.07-5.31-1.07-2.44,0-4.54.5-6.31,1.49-1.76.99-3.12,2.42-4.08,4.28-.96,1.86-1.44,4.11-1.44,6.74v.02c0,1.99.27,3.77.82,5.33s1.34,2.88,2.38,3.96c1.04,1.08,2.29,1.9,3.76,2.47s3.15.85,5.03.85c1.72,0,3.27-.25,4.63-.74,1.36-.49,2.51-1.2,3.46-2.12.95-.92,1.67-2.04,2.16-3.36s.74-2.8.74-4.46v-3.04h-10.79Z"/>
        </g>
      </g>
    </g>
  </g>
</svg>