<?xml version="1.0" encoding="UTF-8"?><svg id="_レイヤー_2" xmlns="http://www.w3.org/2000/svg" viewBox="0 0 78.4 64.4"><g id="_レイヤー_1-2"><path d="M39.24.01c7.51,0,15.03,0,22.54-.01.6,0,1,.18,1.35.67,2.13,2.92,4.28,5.83,6.44,8.74,2.72,3.66,5.46,7.31,8.19,10.97.13.17.24.35.37.53.38.55.37.79-.07,1.27-2.2,2.41-4.39,4.83-6.59,7.24-1.86,2.04-3.72,4.08-5.58,6.13-2.95,3.23-5.89,6.47-8.84,9.7-3.07,3.36-6.15,6.72-9.22,10.08-2.63,2.87-5.25,5.75-7.88,8.62-.57.62-.89.58-1.44-.03-1.2-1.33-2.42-2.65-3.63-3.97-2.01-2.2-4.01-4.4-6.02-6.6-1.31-1.43-2.62-2.85-3.92-4.28-2.1-2.31-4.19-4.63-6.29-6.93-2.08-2.28-4.18-4.54-6.26-6.82-2.19-2.39-4.37-4.8-6.56-7.19-1.73-1.89-3.46-3.78-5.21-5.67-.77-.83-.8-.93-.12-1.85,3.55-4.75,7.1-9.49,10.65-14.24,1.4-1.88,2.81-3.76,4.18-5.66C15.69.21,16.1,0,16.76,0c7.5.02,14.99.01,22.49.01ZM39.21,60.41c5.47-12.76,10.94-25.5,16.42-38.27H22.81c5.48,12.77,10.93,25.5,16.41,38.27ZM22.87,20.9h32.72c-.58-1.28-1.14-2.51-1.69-3.74-2.3-5.14-4.61-10.29-6.9-15.44-.16-.36-.33-.53-.78-.52-4.64.02-9.27.02-13.91,0-.43,0-.66.11-.84.52-2.11,4.74-4.24,9.48-6.36,14.22-.74,1.64-1.47,3.28-2.23,4.97ZM39.66,62.39l.08.05c12.23-13.41,24.46-26.82,36.78-40.32h-4.65c-4.78,0-9.56,0-14.34-.01-.48,0-.67.15-.84.58-.65,1.6-1.36,3.18-2.04,4.77-4.46,10.41-8.92,20.82-13.39,31.23-.53,1.24-1.07,2.47-1.6,3.7ZM38.49,62.15s.06-.04.09-.06c-.05-.15-.1-.29-.16-.44-2.14-5.04-4.28-10.09-6.44-15.12-3.42-7.99-6.86-15.97-10.28-23.95-.13-.3-.24-.47-.64-.47-6.24.02-12.47.01-18.71.02-.13,0-.26.03-.42.04,12.22,13.36,24.39,26.67,36.56,39.99ZM76.63,20.93c-.19-.27-.29-.43-.41-.59-2.61-3.51-5.22-7.01-7.82-10.52-1.99-2.69-3.97-5.39-5.96-8.08-.2-.28-.37-.55-.83-.55-4.37.03-8.73.02-13.1.02-.13,0-.26,0-.44,0,.18.42.32.76.47,1.1,2.72,6.06,5.44,12.11,8.15,18.17.16.36.34.46.71.46,6.2-.01,12.4,0,18.6,0,.17,0,.35,0,.63,0ZM1.78,20.9c.15.01.22.03.29.03,6.36,0,12.73,0,19.09.01.34,0,.46-.14.58-.41,1.87-4.19,3.74-8.38,5.62-12.57,1-2.23,2-4.45,3.02-6.71-.12-.02-.19-.04-.25-.04-4.44,0-8.88,0-13.32.01-.2,0-.47.17-.6.34-.84,1.09-1.64,2.21-2.47,3.31-2.44,3.27-4.89,6.53-7.33,9.8-1.53,2.05-3.06,4.1-4.63,6.22Z"/></g></svg>