<?xml version="1.0" encoding="UTF-8"?><svg id="_レイヤー_2" xmlns="http://www.w3.org/2000/svg" viewBox="0 0 60.6 66.85"><g id="_レイヤー_1-2"><path d="M41.44,33.41c0-10.74,0-21.48,0-32.23,0-1.14.59-1.49,1.58-.93,5.62,3.15,11.24,6.31,16.87,9.46.56.31.71.76.71,1.37,0,14.66,0,29.31,0,43.97,0,1.97.07,1.74-1.56,2.66-5.24,2.94-10.49,5.87-15.73,8.81-.11.06-.23.12-.34.18-.81.43-1.55-.12-1.55-.97.03-7.39.02-14.79.02-22.18,0-3.38,0-6.76,0-10.14ZM43.39,2.63v61.7c.13-.06.23-.09.32-.14,4.86-2.73,9.71-5.47,14.58-8.19.33-.18.43-.39.43-.76,0-14.49-.01-28.99,0-43.48,0-.4-.14-.6-.47-.79-3.65-2.04-7.3-4.09-10.95-6.14-1.29-.73-2.58-1.45-3.92-2.21Z"/><path d="M18.04,33.45c0-8.38,0-16.76-.01-25.14,0-.79.48-1.38,1.47-1.02,4.54,1.63,9.09,3.26,13.64,4.88.71.26.93.57.93,1.35,0,13.31,0,26.63,0,39.94,0,.73-.16.97-.86,1.22-4.52,1.64-9.05,3.28-13.57,4.93-.81.3-1.61.08-1.61-1.12.03-8.35.02-16.69.02-25.04ZM20.02,9.47v47.98c.07,0,.1,0,.13,0,3.89-1.41,7.77-2.82,11.66-4.22.33-.12.33-.32.33-.59,0-12.78,0-25.56,0-38.33,0-.37-.11-.53-.46-.65-2.38-.84-4.74-1.7-7.11-2.56-1.5-.54-3.01-1.07-4.56-1.62Z"/><path d="M0,33.53C0,27.81,0,22.08,0,16.35c0-1.03.44-1.37,1.45-1.09,2.81.79,5.63,1.59,8.44,2.39.87.25,1.14.6,1.14,1.49,0,5.78,0,11.55,0,17.33,0,3.8,0,7.6,0,11.4,0,1.02-.23,1.37-1.2,1.65-2.82.82-5.64,1.64-8.47,2.44-.83.24-1.35-.18-1.35-1.06,0-5.79,0-11.58,0-17.37ZM9.07,47.86v-28.5c-2.38-.68-4.75-1.35-7.13-2.03v32.52c2.4-.67,4.76-1.33,7.13-1.99Z"/></g></svg>