<?xml version="1.0" encoding="UTF-8"?><svg id="_レイヤー_2" xmlns="http://www.w3.org/2000/svg" viewBox="0 0 73.33 66.16"><defs><style>.cls-1{fill:#666;}</style></defs><g id="_レイヤー_1-2"><path class="cls-1" d="M72.15,0c.77,0,1.18.37,1.17.99,0,.34-.09.69-.2,1-5.46,14.91-10.93,29.83-16.4,44.74-1.44,3.93-2.9,7.84-4.35,11.77-.35.94-.9,1.15-1.79.7-3.36-1.67-6.72-3.32-10.07-5-.33-.17-.5-.08-.74.15-3.81,3.75-7.63,7.49-11.44,11.23-.1.09-.19.19-.29.28-.65.57-1.57.27-1.71-.59-.59-3.48-1.17-6.97-1.76-10.46-.46-2.71-.92-5.42-1.4-8.12-.03-.18-.29-.38-.48-.46-3.42-1.37-6.85-2.72-10.27-4.06-3.79-1.49-7.58-2.96-11.36-4.47-.36-.15-.74-.43-.95-.76-.28-.43.03-.98.63-1.28,4.39-2.2,8.79-4.39,13.19-6.59C31.07,20.5,48.21,11.92,65.36,3.34c2.06-1.03,4.12-2.07,6.19-3.1.24-.12.49-.19.61-.23ZM70.08,4.57c-.06-.03-.12-.06-.18-.09-.06.05-.11.1-.17.15-4.94,4.6-9.89,9.2-14.83,13.79-5.07,4.71-10.15,9.43-15.22,14.14-4.68,4.35-9.35,8.7-14.05,13.02-.43.4-.51.74-.42,1.28.62,3.52,1.21,7.04,1.81,10.57.18,1.08.37,2.15.58,3.36.16-.36.26-.58.35-.8,1.47-3.5,2.93-7.01,4.41-10.51.37-.87.96-1.09,1.74-.7,3.97,1.97,7.95,3.94,11.92,5.91,1.58.78,3.16,1.56,4.82,2.37,6.43-17.53,12.84-35.01,19.24-52.49ZM3.56,36.52c.93.37,1.71.69,2.5.99,5.77,2.27,11.53,4.54,17.29,6.83.4.16.65.12.95-.19.58-.59,1.21-1.14,1.81-1.7,6.74-6.26,13.49-12.52,20.23-18.78,5.39-5,10.77-10.01,16.16-15.01,1.13-1.05,2.25-2.1,3.37-3.14-.01-.02-.03-.04-.04-.07C45.13,15.79,24.4,26.12,3.56,36.52ZM29.43,61.65s.04.05.06.08c2.91-2.86,5.83-5.72,8.78-8.63-1.51-.74-2.94-1.44-4.38-2.15-1.5,3.6-2.98,7.15-4.46,10.7Z"/></g></svg>