<?xml version="1.0" encoding="UTF-8"?>
<svg id="_レイヤー_2" data-name="レイヤー 2" xmlns="http://www.w3.org/2000/svg" viewBox="0 0 78.8 80">
  <g id="_レイヤー_1-2" data-name="レイヤー 1">
    <path d="M53.33,77.93c.83,0,1.66,0,2.5,0,1.06,0,2.13,0,3.19,0,.95,0,1.43.38,1.42,1.07-.01.68-.46.99-1.41.99-12.63,0-25.27,0-37.9,0-.47,0-.94.02-1.41,0-.74-.02-1.18-.43-1.16-1.06.02-.6.46-1,1.17-1,1.76-.01,3.52,0,5.28,0,.22,0,.43,0,.67-.12-.13-.07-.26-.14-.4-.2-12.58-5.66-20.86-15.04-24.07-28.52C-1.08,39.48-.19,30.02,4.44,21.2,10,10.61,18.66,3.77,30.37,1.09c10.17-2.32,19.92-.96,28.94,4.31,10.81,6.32,17.26,15.83,19.01,28.21,2,14.19-2.3,26.36-12.71,36.28-3.52,3.35-7.61,5.86-12.07,7.78-.07.03-.14.08-.21.12,0,.05,0,.1,0,.15ZM56.31,59.7c-.46.11-.79.19-1.12.27-.4.09-.8.21-1.2.25-.55.04-.96-.22-1.1-.77-.14-.55.11-.96.58-1.23.19-.11.42-.16.64-.22.73-.19,1.46-.4,2.21-.54.54-.1.76-.37.91-.89,1.62-5.87,2.21-11.86,2.11-17.93-.09-5.12-.74-10.16-1.97-15.13-.15-.61-.42-.94-1.05-1.08-1.45-.34-2.89-.74-4.34-1.12-.8-.21-1.2-.78-1.01-1.48.16-.62.76-.9,1.54-.71,1.09.27,2.18.55,3.28.82.14.04.29.05.67.11-.86-2.05-1.56-3.97-2.45-5.8-1.62-3.31-3.63-6.39-6.57-8.7-3.04-2.39-6.49-3.47-10.35-2.7-3.35.67-5.98,2.57-8.18,5.12-3,3.47-4.93,7.51-6.3,11.85-.03.09,0,.19,0,.34,1.33-.36,2.61-.71,3.89-1.05.81-.21,1.47.2,1.56.93.08.65-.36,1.11-1.18,1.32-1.51.38-3,.82-4.5,1.2-.55.14-.77.44-.9.98-1.77,7.35-2.32,14.79-1.68,22.32.31,3.68.95,7.3,1.9,10.87.11.41.29.62.71.7.86.18,1.71.41,2.56.63.8.21,1.2.76,1.03,1.41-.16.62-.74.89-1.54.71-.59-.13-1.17-.28-1.86-.45,1.5,4.58,3.54,8.73,6.44,12.66.02-.38.04-.57.04-.77.01-8.35.02-16.71.05-25.06,0-.51-.11-.69-.65-.76-2.56-.31-4.33-1.68-5.07-4.17-.26-.87-.32-1.82-.31-2.73.02-1.84.15-3.68.25-5.52.25-4.94,4.63-8.16,8.46-8.08,5.16.1,10.32.02,15.48.03,4.19,0,7.79,3.06,8.3,7.23.29,2.41.4,4.86.38,7.29-.02,3.15-2.14,5.43-5.25,5.93-.24.04-.47.08-.69.12v26.37c2.86-3.87,4.86-8,6.32-12.55ZM38.51,78.12c0-.43,0-.67,0-.91,0-7.96,0-15.92,0-23.89,0-.29-.01-.58.04-.86.1-.53.48-.81,1-.83.54-.02.89.28,1.02.8.05.17.04.37.04.55,0,8.13,0,16.25,0,24.38,0,.22,0,.43,0,.68,2.35-.03,4.58-.29,6.79-.73.43-.09.35-.38.35-.65,0-9.95-.01-19.9-.02-29.84,0-.21,0-.43,0-.71-1.31.13-2.51.25-3.71.38-1.28.14-2.56.39-3.84.39-1.59-.01-3.18-.23-4.76-.38-1.36-.12-2.72-.27-4.18-.42,0,.39,0,.71,0,1.03,0,5.36,0,10.73,0,16.09,0,4.48,0,8.97,0,13.45,0,.48.13.71.62.76.67.08,1.33.25,2,.31,1.52.15,3.05.26,4.66.4ZM43.37,44.34c.27,0,.45.02.63,0,2.01-.21,4.03-.41,6.04-.66,2.23-.27,3.75-1.91,3.72-4.15-.03-2.21-.12-4.42-.35-6.62-.31-2.98-2.95-5.45-5.86-5.48-5.3-.06-10.6-.05-15.91,0-2.9.03-5.78,2.47-6.08,5.22-.26,2.34-.36,4.7-.38,7.05-.02,2.14,1.52,3.69,3.65,3.93,1.32.15,2.64.29,3.97.43,2.22.23,4.44.48,6.66.66,1.08.09,1.94-.7,2.03-1.71.08-.95-.53-1.69-1.63-1.86-2.99-.46-5.99-.89-8.99-1.34-.77-.11-1.15-.5-1.08-1.22.17-1.98.37-3.95.58-5.93.07-.68.56-1.08,1.15-1.03.63.06,1.02.55.97,1.26-.04.55-.1,1.1-.15,1.65-.1,1.07-.19,2.14-.29,3.26,1.8.27,3.53.55,5.27.8,1.09.15,2.16.44,3.28.21,1.06-.22,2.14-.32,3.22-.48,1.03-.15,2.05-.3,3.11-.46-.03-.27-.05-.47-.07-.67-.14-1.45-.28-2.89-.4-4.34-.06-.68.33-1.15.93-1.22.58-.06,1.07.35,1.19,1,.02.1.02.2.03.31.16,1.61.31,3.22.48,4.83.17,1.66-.03,1.93-1.68,2.16-.04,0-.08,0-.12.01-1.45.22-2.9.43-4.46.67,1.01,1.17,1.02,2.41.55,3.74ZM75.52,48.81c-.05-.04-.11-.09-.16-.13-.09.13-.16.28-.28.39-1.41,1.31-2.74,2.71-4.24,3.89-3.4,2.68-7.29,4.45-11.37,5.8-.39.13-.6.33-.72.73-.24.85-.52,1.68-.81,2.51-1.8,4.97-4.19,9.59-7.76,13.55-.2.22-.2.62-.3.94.06.03.13.06.19.09,6.82-2.44,12.66-6.32,17.35-11.87,3.95-4.67,6.61-9.99,8.1-15.9ZM29.02,76.6c0-.27.05-.45,0-.54-.26-.38-.55-.75-.85-1.11-3.76-4.55-6.33-9.72-8.03-15.35-.16-.52-.42-.75-.91-.92-5.96-2.04-11.33-5.01-15.53-9.84-.06-.06-.15-.1-.34-.22,1.63,6.48,4.56,12.12,8.95,16.99,4.59,5.09,10.15,8.72,16.72,10.99ZM29.21,3.97c-4.79.73-12.44,5.3-16.87,10.06C7.84,18.86,2.83,28.5,3.36,31.27c.76-.79,1.49-1.62,2.3-2.36,3.85-3.53,8.38-5.9,13.28-7.59.71-.24,1.03-.6,1.23-1.31,1.46-5.15,3.69-9.93,7.2-14.03.57-.67,1.18-1.29,1.84-2.01ZM75.58,30.96c-.86-4.95-4.04-11.72-9.27-17.12-4.68-4.84-10.28-8.09-16.79-9.84.26.35.59.62.89.91.32.32.62.65.92.99,3.6,4.15,5.88,8.99,7.38,14.22.18.63.49.92,1.1,1.13,4.77,1.62,9.2,3.87,13.02,7.22.98.86,1.94,1.75,2.76,2.49ZM59.6,56.39c.58-.22,1.01-.37,1.42-.54,4.49-1.81,8.61-4.19,11.91-7.82,1.66-1.83,2.94-3.88,3.49-6.33.05-.21.06-.42.1-.66h-14.99c-.01,5.16-.63,10.22-1.93,15.34ZM59.9,23.53c-.05.07-.1.13-.15.2,1.15,4.92,1.73,9.9,1.8,14.98h14.97c-.04-.26-.07-.47-.11-.66-.37-1.85-1.2-3.47-2.34-4.95-2.32-3-5.3-5.22-8.63-6.96-1.8-.95-3.69-1.74-5.54-2.6ZM19.03,56.34s.09-.08.14-.12c-1.22-4.98-1.83-10.04-1.87-15.17H2.37c.08.37.13.69.22,1,.58,2,1.6,3.76,2.92,5.35,2.59,3.11,5.85,5.34,9.44,7.11,1.33.66,2.71,1.22,4.07,1.82ZM17.31,38.72c.05-5.09.6-10.09,1.78-15.02-.13-.01-.18-.03-.21-.02-4.33,1.65-8.4,3.76-11.82,6.95-1.87,1.74-3.38,3.73-4.19,6.18-.2.61-.3,1.24-.46,1.9h14.9Z"/>
    <path d="M31.39,14.4c0-4.48,3.58-8.17,7.93-8.19,4.55-.01,8.27,3.67,8.24,8.16-.02,4.55-3.67,8.29-8.07,8.27-4.47-.02-8.1-3.71-8.1-8.24ZM45.21,14.47c.02-3.15-2.63-5.84-5.75-5.85-3.11,0-5.72,2.62-5.73,5.78-.01,3.11,2.62,5.79,5.72,5.83,3.08.03,5.75-2.63,5.77-5.76Z"/>
  </g>
</svg>