<?xml version="1.0" encoding="UTF-8"?>
<svg id="_レイヤー_2" data-name="レイヤー 2" xmlns="http://www.w3.org/2000/svg" viewBox="0 0 79.7 80">
  <g id="_レイヤー_1-2" data-name="レイヤー 1">
    <path d="M9.34,72.84c-1.27,0-2.54,0-3.81,0-3.04-.02-5.48-2.23-5.49-5.27-.05-10.59-.04-21.17.01-31.76.01-2.75,2.56-4.86,5.57-4.85,6.89.01,13.78.02,20.67.03.41,0,.81,0,1.37,0,0-3.26,0-6.43,0-9.61-.01-5.29-.07-10.59-.03-15.88C27.66,2.14,30.03.02,33.63.01,43.21,0,52.8,0,62.38,0c3.83,0,7.67-.01,11.5,0,3.28.01,5.75,2.34,5.77,5.64.05,9.67.06,19.35.01,29.02-.02,3.16-2.41,5.42-5.61,5.52-1.41.04-2.82,0-4.37,0,0,.82-.01,1.75,0,2.69.01.73.07,1.46.08,2.19.02,1.04-.33,2.05-1.38,2.24-.78.14-1.86-.05-2.46-.52-2.25-1.78-4.38-3.71-6.52-5.63-.9-.8-1.83-1.23-3.08-1.14-1.53.11-3.08.03-4.79.03,0,.64,0,1.13,0,1.61,0,8.4-.11,16.79.05,25.19.07,3.86-2.99,6.1-6.02,6.05-8.03-.15-16.06-.03-24.09-.08-1.12,0-1.89.4-2.65,1.1-1.94,1.79-3.93,3.54-5.87,5.34-.75.69-1.59.97-2.49.55-.93-.43-1.18-1.28-1.14-2.29.06-1.5.01-3,.01-4.68ZM67.17,44.45c-.07-1.66-.11-3.02-.2-4.38-.12-1.81.52-2.55,2.29-2.56,1.64,0,3.28.01,4.93,0,1.51-.02,2.58-.94,2.8-2.44.09-.58.1-1.18.11-1.77,0-8.94,0-17.88-.01-26.82,0-.32,0-.64-.03-.96-.17-1.76-1.14-2.76-2.89-2.82-1.5-.06-3.01.02-4.51.02-12.09,0-24.17,0-36.26.02-2.11,0-3.25,1.1-3.25,3.14,0,9.35,0,18.7.02,28.05,0,2.46,1.15,3.58,3.6,3.58,7.8,0,15.6.02,23.4-.02,1.32,0,2.37.34,3.35,1.21,2.11,1.87,4.26,3.69,6.66,5.75ZM27.37,33.65c-7.28,0-14.66-.02-22.05.02-1.73,0-2.82,1.32-2.82,3.18,0,9.99,0,19.97,0,29.96,0,2.21,1.33,3.52,3.57,3.55,1.37.01,2.74,0,4.1.02,1.38.03,1.89.54,1.9,1.89.01,1.39,0,2.78,0,4.33,1.84-1.67,3.69-3.28,5.46-4.96.95-.9,1.96-1.31,3.3-1.3,8.16.05,16.32.03,24.49.02,2.64,0,3.75-1.1,3.75-3.7,0-8.39,0-16.78,0-25.17,0-.44-.04-.88-.06-1.3-.21-.04-.29-.07-.38-.07-4.92,0-9.85-.05-14.77.02-2.39.03-4.35-.71-5.49-2.84-.55-1.03-.65-2.3-1-3.65Z"/>
    <path d="M60.98,16.15c-.65,3.32-1.54,5.01-4.65,8.81,2.23,1,4.39,1.98,6.55,2.94.33.15.69.22,1.02.37.84.38,1.61.89,1.16,1.95-.41.98-1.3,1.08-2.18.69-2.56-1.15-5.14-2.29-7.64-3.56-.88-.45-1.47-.41-2.34.02-2.52,1.25-5.1,2.36-7.68,3.48-.81.35-1.68.37-2.09-.61-.42-1.02.18-1.62,1.08-2,2.5-1.05,4.99-2.11,7.72-3.27-2.65-2.56-4.19-5.42-4.88-8.83-1.14,0-2.28,0-3.41,0-.99,0-1.63-.49-1.58-1.46.04-.87.63-1.32,1.59-1.3,2.92.03,5.83.01,8.97.01,0-.65-.07-1.27.02-1.87.16-1.12-.71-2.78,1.32-3.02,1.17-.14,1.4.44,1.4,3.08,0,.54,0,1.09,0,1.82,1.78,0,3.49,0,5.2,0,1.32,0,2.66-.12,3.96.06.54.08.99.81,1.49,1.25-.47.48-.88,1.26-1.42,1.36-1.14.21-2.34.06-3.59.06ZM54,23.15c2.18-1.96,3.59-4.17,4.12-6.99h-8.2c.59,2.8,2.01,5,4.08,6.99Z"/>
    <path d="M12.65,63.22c.27-.7.42-1.18.63-1.62,2.98-6.27,5.98-12.52,8.93-18.8.48-1.02,1.14-1.64,2.26-1.64,1.12,0,1.81.65,2.28,1.65,2.96,6.37,5.94,12.74,8.91,19.1.1.2.28.45.23.62-.15.6-.21,1.42-.61,1.7-.64.44-1.42.15-1.8-.65-.85-1.8-1.71-3.61-2.51-5.43-.31-.7-.67-1.05-1.51-1.03-3.37.06-6.75,0-10.12.08-.48.01-1.16.46-1.39.9-.94,1.76-1.67,3.62-2.63,5.37-.25.45-1.06.8-1.61.8-.37,0-.74-.71-1.06-1.05ZM24.5,44.26c-1.65,3.49-3.2,6.79-4.78,10.13h9.48c-1.57-3.39-3.07-6.62-4.7-10.13Z"/>
  </g>
</svg>