<?xml version="1.0" encoding="UTF-8"?>
<svg id="_レイヤー_2" data-name="レイヤー 2" xmlns="http://www.w3.org/2000/svg" viewBox="0 0 91.16 80">
  <g id="_レイヤー_1-2" data-name="レイヤー 1">
    <path d="M50.84,12.73c-.05,1.05-.03,2.01-.14,2.96-.33,2.79-2.02,4.44-4.82,4.46-7.95.05-15.91.04-23.86-.04-2.84-.03-4.64-2-4.82-4.98-.05-.78,0-1.56,0-2.57-1.22,0-2.35,0-3.47,0-1.7,0-3.4-.02-5.1,0-3.72.02-6.04,2.28-6.02,6.01.03,11.36.13,22.71.19,34.07.02,4.23.02,8.46.03,12.69.01,3.21,2.32,5.59,5.51,5.63,8.41.11,16.83.19,25.24.28.91,0,1.87-.04,1.84,1.24-.03,1.23-.96,1.26-1.89,1.25-8.69-.09-17.38-.1-26.07-.29-3.61-.08-6.93-3.25-7.1-6.85C.09,61.09.08,55.57.06,50.06.01,39.48.11,28.9,0,18.33c-.05-4.81,4.18-8.68,8.45-8.38,2.83.2,5.69.04,8.52.04.83-2.51,1.46-2.97,4.07-3.05.28,0,.55-.06.83-.04,2.53.19,4.29-.23,5.44-3.14C28.55.63,31.77-.34,35.08.1c3.2.43,5.2,2.5,6.33,5.45.16.42.25.87.4,1.4,1.41,0,2.84.08,4.26-.02,2.38-.17,4.2.43,4.77,3.06,2.38,0,4.68-.02,6.98,0,4.55.04,8.08,3.36,8.18,7.92.15,7.26.14,14.53.2,21.79,0,.94-.32,1.68-1.36,1.72-1.21.04-1.34-.8-1.34-1.78.02-6.9-.05-13.8.03-20.69.04-3.52-2.16-6.57-6.3-6.25-2.09.16-4.2.03-6.39.03ZM19.82,9.44c0,2.19-.07,3.94.02,5.68.09,1.7.84,2.32,2.56,2.32,5.01,0,10.02,0,15.02,0,2.8,0,5.6,0,8.41,0,1.02,0,2.1-.21,2.18-1.4.14-2.09.04-4.19.04-6.52-2.26,0-4.37-.03-6.47,0-1.79.03-2.2-.29-2.36-2.03-.23-2.51-2.52-4.81-4.93-4.96-2.61-.16-5.11,1.77-5.61,4.31q-.51,2.59-3.22,2.59c-1.86,0-3.73,0-5.64,0Z"/>
    <path d="M91.16,41.09c-.65,1.23-.98,2.46-1.75,3.26-9.78,10.05-19.61,20.04-29.46,30.02-.43.44-1.04.77-1.62.99-4.11,1.51-8.24,2.99-12.37,4.45-1.6.57-2.46-.18-2.01-1.83,1.21-4.45,2.48-8.89,3.79-13.31.2-.67.66-1.31,1.16-1.82,9.35-9.56,18.72-19.11,28.1-28.65,2.92-2.97,5.69-2.99,8.74-.1,1.17,1.11,2.43,2.15,3.42,3.39.82,1.03,1.32,2.32,2.01,3.6ZM46.65,77.05c3.34-1.23,6.47-2.31,9.55-3.54,1.11-.45,2.26-1.08,3.09-1.93,9.43-9.55,18.81-19.16,28.2-28.76,1.17-1.2,1.18-2.27.02-3.47-1.15-1.19-2.34-2.34-3.53-3.49-1.88-1.84-3.03-1.86-4.95-.11-.34.31-.66.64-.98.97-9.12,9.29-18.23,18.57-27.34,27.86-.34.35-.71.77-.85,1.23-1.08,3.67-2.11,7.35-3.21,11.25Z"/>
    <path d="M32.88,28.13c5.93,0,11.86,0,17.79,0,.37,0,.74,0,1.1,0,.97.03,2.12-.05,2.06,1.37-.06,1.33-1.19,1.34-2.16,1.35-5.65.03-11.31.03-16.96.04-6.71.02-13.42.04-20.13.05-.46,0-1.03.13-1.35-.09-.53-.37-1.16-.93-1.25-1.49-.15-.92.63-1.16,1.47-1.16,4.6.01,9.19,0,13.79,0,1.88,0,3.77,0,5.65,0,0-.03,0-.05,0-.08Z"/>
    <path d="M32.82,41.46c-6.25,0-12.5,0-18.76,0-.41,0-.92.12-1.22-.07-.4-.25-.88-.75-.88-1.14,0-.41.46-.89.83-1.22.19-.16.62-.06.94-.06,12.14.03,24.27.06,36.41.1.83,0,1.69-.06,2.46.16.48.14,1.17.77,1.14,1.14-.03.46-.63.98-1.1,1.3-.29.19-.8.06-1.22.06-6.21,0-12.41,0-18.62,0,0-.09,0-.18,0-.26Z"/>
    <path d="M29.97,49.99c5.33,0,10.65,0,15.98,0,.41,0,.91-.04,1.19.17.39.29.87.81.86,1.2-.02.38-.56.87-.98,1.08-.42.21-.99.17-1.49.17-10.38-.04-20.76-.09-31.13-.15-.54,0-1.16,0-1.6-.26-.4-.22-.85-.79-.83-1.19.02-.38.55-.84.96-1.08.32-.19.8-.11,1.21-.11,5.28,0,10.56,0,15.84,0,0,.06,0,.12,0,.17Z"/>
  </g>
</svg>