<?xml version="1.0" encoding="UTF-8"?>
<svg id="_レイヤー_2" data-name="レイヤー 2" xmlns="http://www.w3.org/2000/svg" viewBox="0 0 86.77 80">
  <g id="_レイヤー_1-2" data-name="レイヤー 1">
    <path d="M77.59,71.33c0-3.07,0-5.94,0-8.81,0-17.82-.02-35.63-.03-53.45,0-.55-.13-1.15.05-1.63.2-.5.7-.88,1.08-1.32.38.42,1.06.82,1.08,1.26.12,2,.06,4.02.07,6.03,0,.22,0,.45,0,.84,1.72,0,3.39.02,5.05,0,.92-.01,1.71.16,1.72,1.26,0,1.15-.84,1.22-1.73,1.21-1.63-.02-3.27,0-4.98,0v5.53c1.71,0,3.42-.06,5.13.04.54.03,1.29.36,1.53.79.46.81-.24,1.57-1.39,1.59-1.68.03-3.37,0-5.17,0v5.21c1.56,0,3.22.02,4.89,0,.91-.02,1.72.1,1.74,1.22.02,1.12-.78,1.28-1.69,1.27-1.63-.03-3.27,0-4.98,0v5.21c1.67,0,3.34.03,5.01-.01.94-.02,1.73.23,1.74,1.26,0,1.06-.84,1.25-1.76,1.23-1.64-.03-3.27,0-4.98,0v5.49c1.65,0,3.32.01,4.98,0,.91-.01,1.74.13,1.72,1.24-.02,1.1-.86,1.23-1.77,1.21-1.63-.03-3.26,0-4.96,0v5.23c1.74,0,3.45.02,5.17-.01.88-.02,1.64.16,1.63,1.18,0,.99-.78,1.24-1.63,1.24-1.68,0-3.36,0-5.08,0v5.49c1.69,0,3.31.02,4.94,0,.88-.01,1.78.02,1.8,1.14.03,1.13-.86,1.19-1.75,1.18-1.59-.03-3.19,0-5.01,0,0,1.18,0,2.3,0,3.42,0,1.78-.02,3.56.03,5.34.03,1.17-.47,1.67-1.62,1.65-2.05-.03-4.1,0-6.34,0,0,1.44,0,2.74,0,4.04,0,.41.09.93-.12,1.2-.32.42-.89.95-1.3.91-.38-.04-.94-.75-.97-1.2-.12-1.58-.05-3.17-.05-4.84h-5.49c0,1.48-.01,2.96,0,4.45,0,.85-.13,1.67-1.15,1.67-1.03,0-1.33-.77-1.33-1.7.01-1.41,0-2.83,0-4.35h-5.49c0,1.41,0,2.81,0,4.21,0,.83-.16,1.62-1.21,1.63-1.15.02-1.26-.8-1.25-1.7.02-1.37,0-2.73,0-4.18h-5.65c0,1.45,0,2.85,0,4.24,0,.8,0,1.63-1.14,1.62-1.08-.01-1.2-.76-1.19-1.61.01-1.37,0-2.74,0-4.22h-5.45c0,1.49-.02,2.94,0,4.39.01.81-.13,1.55-1.08,1.58-1.02.03-1.23-.73-1.22-1.6.01-1.41,0-2.82,0-4.31h-5.66c0,1.34-.01,2.73,0,4.12,0,.84-.1,1.61-1.17,1.63-1.13.02-1.31-.77-1.31-1.67,0-1.32,0-2.64,0-4.05h-5.5c0,1.36.02,2.71-.01,4.05-.01.44-.04.99-.29,1.28-.27.32-.91.63-1.22.51-.4-.15-.85-.73-.88-1.15-.11-1.5-.04-3.01-.04-4.62h-5.52c0,1.14.02,2.31-.01,3.48-.01.49-.01,1.05-.25,1.45-.21.36-.76.77-1.11.73-.37-.04-.97-.57-.99-.91-.09-1.77-.15-3.57.04-5.33.14-1.3,1.4-2,3.02-2.01,6.53-.04,13.06-.07,19.6-.09,13.16-.04,26.31-.08,39.47-.11.41,0,.81,0,1.4,0Z"/>
    <path d="M6.81,45.41v-5.13c-1.58,0-3.11,0-4.64,0-.96,0-2.17.16-2.11-1.24.05-1.3,1.22-1.23,2.2-1.22,1.45.01,2.91,0,4.45,0v-5.49c-1.7,0-3.46.06-5.21-.04-.49-.03-1.08-.41-1.39-.81-.17-.22.02-.96.29-1.2.33-.29.9-.39,1.37-.4,1.63-.04,3.26-.02,4.97-.02v-5.21c-1.67,0-3.34,0-5.01,0-.88,0-1.73-.05-1.7-1.23.02-1.13.84-1.25,1.73-1.25,1.63,0,3.26,0,4.96,0v-5.48c-1.69,0-3.36-.01-5.03,0-.84,0-1.64-.09-1.64-1.15,0-1.1.85-1.12,1.67-1.12,1.6,0,3.19,0,4.97,0,0-1.72,0-3.44,0-5.15,0-.59-.02-1.19.02-1.78.07-1.02.58-1.57,1.67-1.55,1.82.03,3.64,0,5.64,0,0-1.47.03-2.83-.01-4.18-.03-.91.27-1.64,1.18-1.68,1.04-.04,1.3.79,1.29,1.71-.02,1.31,0,2.62,0,3.99h5.26c0-1.36,0-2.71,0-4.05,0-.89.16-1.76,1.24-1.75,1.1,0,1.21.89,1.19,1.78-.02,1.31,0,2.63,0,4h5.7c0-1.46,0-2.87,0-4.27,0-.84.31-1.51,1.2-1.5.95.01,1.09.77,1.08,1.57-.02,1.36,0,2.72,0,4.16h5.58c0-1.33,0-2.69,0-4.04,0-.88.14-1.75,1.28-1.71,1.05.04,1.12.87,1.11,1.7,0,1.32,0,2.63,0,4.07h5.57c0-1.43,0-2.83,0-4.23,0-.78.11-1.55,1.11-1.54.99.01,1.26.69,1.24,1.59-.03,1.37,0,2.74,0,4.22h5.67c0-1.19-.02-2.41,0-3.62.02-.92-.22-2.17,1.2-2.16,1.34.01,1.07,1.22,1.09,2.09.03,1.22,0,2.44,0,3.75h5.46c0-1.4.02-2.8,0-4.19-.02-.88.2-1.64,1.18-1.66,1.06-.02,1.32.75,1.3,1.69-.03,1.32,0,2.63,0,4.03h6.73c0-1.46,0-2.82,0-4.18,0-.88.3-1.56,1.31-1.56,1,0,1.14.81,1.17,1.54.05,1.46.08,2.93,0,4.38-.08,1.43-.94,2.26-2.39,2.28-4.43.06-8.86.05-13.29.06-15.71.04-31.43.08-47.14.13-.31,0-.63.04-1.09.08,0,.8,0,1.56,0,2.32.05,19.92.1,39.83.14,59.75,0,.59.16,1.28-.08,1.76-.28.56-.92.95-1.4,1.41-.34-.52-.95-1.02-.96-1.55-.1-2.78-.05-5.57-.05-8.58-1.77,0-3.53.08-5.28-.05-.53-.04-1.34-.59-1.45-1.04-.22-.91.46-1.38,1.4-1.38,1.73,0,3.45,0,5.26,0v-5.52c-1.59,0-3.17-.03-4.74,0-.9.02-1.81-.08-1.85-1.13-.04-1.12.87-1.33,1.83-1.32,1.55.02,3.1,0,4.74,0v-5.35c-1.31,0-2.66,0-4.01,0-.5,0-1.08.18-1.48-.02-.49-.24-.83-.79-1.23-1.21.45-.37.87-1,1.34-1.05,1.54-.14,3.1-.05,4.66-.06.22,0,.44-.04.8-.07Z"/>
    <path d="M17.14,42.26c.37-.39.75-1.18,1.3-1.32,3-.76,3.74-2.84,4.23-5.63.34-1.89.26-3.06-1.36-4.03-.11-.07-.2-.18-.3-.28-2.02-1.93-2.05-2.17-.4-4.42,1.27-1.73,2.56-3.44,3.87-5.13,1.15-1.48,1.88-1.57,3.47-.55.27.17.55.33.8.52,1.41,1.05,2.75,1.33,4.3.12.8-.62,1.86-.97,2.85-1.25,1.03-.3,1.51-.75,1.39-1.89-.08-.85.1-1.73.18-2.59.08-.86.55-1.33,1.42-1.33,3.11,0,6.21.02,9.32.05.97.01,1.45.67,1.37,1.52-.27,2.71.9,4.01,3.41,5.2,2.43,1.15,4.12,1.1,6.13-.45,1.28-.99,2.03-.77,3,.5,1.53,1.99,3.06,3.97,4.57,5.98,1.01,1.35.97,1.84-.18,3.08-.4.43-.79.94-1.28,1.23-1.36.79-1.64,1.79-1.08,3.25.41,1.09.63,2.28.77,3.45.1.87.51,1.28,1.27,1.55.81.29,1.6.65,2.39.98,1.08.45,1.5,1.12,1.11,2.37-.8,2.55-1.44,5.15-2.18,7.73-.44,1.54-.98,1.95-2.47,1.54-2.33-.65-4.06-.32-5.7,1.77-1.86,2.37-2.08,2.2-.93,5.02.86,2.11.75,2.39-1.3,3.31-2.2.99-4.4,1.96-6.59,2.97-1.17.54-2.11.35-2.83-.76-.17-.27-.45-.5-.54-.78-.83-2.71-2.97-2.46-5.06-2.22-.46.05-.97.45-1.3.82-.63.72-1.14,1.54-1.7,2.31-.69.95-1.56,1.17-2.63.68-2.43-1.13-4.88-2.23-7.32-3.36-1.02-.47-1.45-1.17-.97-2.31.37-.88.59-1.82.97-2.68.38-.84.06-1.33-.56-1.87-.79-.68-1.65-1.35-2.22-2.21-.73-1.1-1.55-1.26-2.74-1.01-3.7.8-3.71.77-4.69-2.83-.52-1.93-1.02-3.86-1.52-5.8-.08-.3-.15-.61-.31-1.25ZM39.86,16.92c-.13,1.27-.13,2.47-.42,3.6-.15.59-.7,1.25-1.25,1.54-1.83.97-3.72,1.88-5.65,2.64-.76.3-1.78.39-2.53.13-1.23-.42-2.33-1.19-3.6-1.88-1.41,1.89-2.81,3.77-4.25,5.71.95.85,1.8,1.61,2.66,2.36.93.81,1.12,1.69.71,2.92-.53,1.58-.95,3.25-1.06,4.9-.09,1.33-.63,2.14-1.66,2.75-.93.55-1.89,1.05-2.87,1.59.62,2.3,1.21,4.52,1.81,6.77,1.19-.19,2.23-.33,3.25-.54,1.14-.23,1.88.22,2.58,1.09.99,1.23,2.05,2.43,3.21,3.51.78.72,1.24,1.46,1.03,2.5-.25,1.22-.57,2.44-.87,3.69,1.6.76,3.2,1.43,4.69,2.28,1.14.64,1.87.59,2.51-.62,1.11-2.09,2.78-2.77,5.24-2.78,2.69,0,4.72.33,5.61,3.16.05.17.16.37.3.45.25.14.61.35.81.26,1.99-.87,3.95-1.79,5.92-2.7-.31-1.12-.61-2.08-.84-3.04-.31-1.27-.17-2.31.99-3.27,1.18-.97,2.19-2.2,3.08-3.46.76-1.07,1.61-1.33,2.81-1.05,1,.23,2.03.36,3.1.54.69-2.45,1.33-4.74,1.96-6.97-1.07-.48-2.02-.91-2.97-1.33-1.02-.46-1.42-1.31-1.63-2.35-.35-1.73-.68-3.48-1.21-5.16-.38-1.2-.24-2.11.69-2.95.91-.82,1.78-1.68,2.66-2.51-1.5-1.99-2.92-3.87-4.3-5.71-1.27.69-2.34,1.42-3.52,1.86-.63.24-1.52.18-2.15-.08-1.92-.79-3.81-1.7-5.65-2.68-.56-.3-1.11-.94-1.29-1.54-.34-1.15-.4-2.38-.59-3.65h-7.29Z"/>
    <path d="M43.42,51.6c-6.47.01-11.37-4.9-11.37-11.41,0-6.32,5.13-11.43,11.47-11.42,6.27.01,11.33,5.18,11.34,11.56,0,6.23-5.1,11.25-11.44,11.26ZM34.5,40.21c-.03,4.9,3.8,8.83,8.64,8.85,5.25.03,9.22-3.68,9.27-8.67.05-4.95-3.99-9.15-8.95-9.09-5.47.06-9.19,4.57-8.96,8.91Z"/>
  </g>
</svg>