<?xml version="1.0" encoding="UTF-8"?>
<svg id="_レイヤー_2" data-name="レイヤー 2" xmlns="http://www.w3.org/2000/svg" viewBox="0 0 78.92 79.15">
  <g id="_レイヤー_1-2" data-name="レイヤー 1">
    <path d="M74.7,22.45c-.32,1.48-.66,3.07-1.01,4.67-.08.37-.16.74-.24,1.11-.38,1.64.1,2.99,1.26,4.21,1.2,1.25,2.3,2.61,3.44,3.92.52.59.83,1.25.74,2.07-.06.59-.05,1.2,0,1.8.06.73-.19,1.29-.67,1.84-1.15,1.3-2.26,2.64-3.39,3.97-.17.2-.32.41-.49.61-.94,1.12-1.21,2.38-.83,3.81.39,1.46.78,2.93,1.09,4.42.65,3.19-.61,5.47-3.64,6.66-.7.28-1.43.5-2.16.73-.84.26-1.68.53-2.53.74-1.4.34-2.33,1.2-2.82,2.53-.62,1.67-1.13,3.37-1.79,5.02-.35.87-.81,1.76-1.42,2.46-1.14,1.32-2.69,1.69-4.37,1.36-1.8-.35-3.59-.79-5.37-1.21-1.43-.34-2.63.06-3.69,1.04-1.39,1.29-2.79,2.58-4.22,3.82-.7.61-1.53,1.02-2.48,1.11-1.23.12-2.37-.12-3.32-.91-1.27-1.06-2.49-2.18-3.74-3.28-.33-.29-.65-.59-.98-.89-1.11-1.01-2.38-1.28-3.84-.93-1.59.39-3.19.75-4.79,1.07-3.33.67-5.43-1.2-6.26-3.68-.51-1.53-1.04-3.06-1.52-4.61-.52-1.68-1.56-2.77-3.29-3.23-1.47-.39-2.92-.85-4.35-1.34-2.9-1.01-4.27-3.42-3.64-6.42.3-1.45.66-2.88,1.07-4.3.5-1.75.07-3.23-1.1-4.55-.83-.94-1.68-1.87-2.51-2.82-.5-.57-1.01-1.14-1.43-1.77-.24-.36-.39-.83-.42-1.26-.05-.79-.04-1.6.05-2.39.05-.47.2-1.01.49-1.36,1.22-1.5,2.47-2.99,3.8-4.4,1.24-1.32,1.61-2.77,1.17-4.52-.37-1.45-.67-2.92-.92-4.39-.41-2.41.61-4.19,2.67-5.34,1.03-.58,2.21-.91,3.33-1.32.81-.29,1.63-.53,2.46-.78,1.27-.38,2.06-1.23,2.49-2.47.59-1.7,1.17-3.4,1.8-5.08.7-1.86,2.01-3.14,4.01-3.36,1.18-.13,2.42.09,3.61.29,1.26.21,2.49.57,3.73.9,1.33.35,2.43-.02,3.4-.95,1.22-1.15,2.45-2.3,3.71-3.41.81-.72,1.72-1.29,2.81-1.53,1.55-.33,2.91.13,4.09,1.07,1.28,1.02,2.58,2.04,3.7,3.22,1.54,1.62,3.23,2.02,5.31,1.33,1.27-.42,2.58-.73,3.9-.94,1.67-.27,3.37-.24,4.63,1.12.59.64,1.1,1.43,1.43,2.24.62,1.53,1.09,3.13,1.6,4.7.46,1.41,1.38,2.29,2.81,2.69,1.52.43,3.02.9,4.52,1.4,1.67.55,2.99,1.55,3.61,3.24.24.66.29,1.39.46,2.26ZM72.27,22.86c-.01-2.35-.63-3.22-2.33-3.77-1.63-.53-3.28-1.01-4.92-1.53-1.88-.59-3.16-1.82-3.8-3.69-.53-1.55-1-3.12-1.55-4.66-.74-2.06-1.89-2.66-4.01-2.14-1.2.29-2.41.57-3.6.93-2.84.88-5.28.28-7.34-1.86-.53-.55-1.06-1.09-1.63-1.59-.7-.62-1.41-1.24-2.18-1.78-.94-.65-1.93-.56-2.86.08-.49.34-.97.71-1.4,1.12-.98.91-1.92,1.87-2.89,2.79-1.58,1.5-3.43,2.05-5.57,1.51-1.61-.41-3.21-.85-4.83-1.19-2.09-.43-3.27.26-4.02,2.26-.55,1.46-1.06,2.93-1.54,4.41-.73,2.27-2.26,3.64-4.53,4.3-1.57.46-3.13.97-4.65,1.56-1.35.52-1.96,1.64-1.76,3.06.15,1.06.4,2.12.61,3.17.14.68.3,1.37.42,2.05.39,2.13-.25,3.93-1.68,5.51-1.09,1.2-2.17,2.4-3.21,3.64-1.1,1.32-1.09,2.55-.07,3.93.18.24.37.47.57.7.96,1.07,1.94,2.12,2.87,3.22,1.25,1.47,1.87,3.16,1.5,5.11-.23,1.23-.57,2.45-.83,3.67-.16.76-.35,1.52-.41,2.29-.11,1.67.53,2.65,2.12,3.19,1.62.55,3.28,1.01,4.92,1.53,1.19.38,2.16,1.09,2.94,2.08.96,1.21,1.32,2.67,1.82,4.08.45,1.28.87,2.57,1.4,3.82.44,1.01,1.34,1.45,2.43,1.42.49-.01.99-.11,1.48-.22,1.56-.35,3.11-.75,4.67-1.08,1.57-.34,3.03-.04,4.32.93.67.5,1.31,1.04,1.94,1.6,1.11.97,2.18,2,3.32,2.94.95.78,1.98.79,3,.1.62-.42,1.2-.93,1.76-1.44.93-.85,1.81-1.75,2.74-2.6,1.43-1.3,3.12-1.86,5.04-1.47,1.72.35,3.42.79,5.14,1.17,1.98.44,3.08-.14,3.79-2.05.47-1.27.92-2.56,1.3-3.86.87-2.93,2.59-4.91,5.72-5.56,1.4-.29,2.76-.82,4.08-1.36,1.5-.61,2.08-1.64,1.84-3.25-.2-1.36-.49-2.72-.89-4.03-.86-2.81-.42-5.26,1.63-7.42.95-1,1.81-2.08,2.71-3.13,1.26-1.47,1.29-2.76.02-4.23-1.07-1.24-2.18-2.44-3.27-3.67-1.19-1.33-1.84-2.84-1.52-4.66.14-.81.28-1.61.44-2.41.28-1.37.57-2.73.74-3.54Z"/>
    <path d="M39.44,15.61c13.05-.2,23.67,10.02,24.11,23.09.44,12.92-9.82,24.22-23.12,24.62-13.67.41-24.13-10.45-24.61-22.87-.56-14.25,10.99-24.94,23.62-24.84ZM39.99,17.89c-11.7-.22-21.31,8.98-21.82,20.57-.53,11.82,8.61,21.99,20.31,22.56,12.72.62,22.46-9.26,22.74-21.05.27-11.39-8.26-21.73-21.23-22.07Z"/>
    <path d="M26.82,36.52c.2.13.61.31.9.6,3.1,3.06,6.19,6.13,9.27,9.21.56.56.54.55,1.1,0,4.64-4.63,9.29-9.25,13.93-13.87.62-.62,1.23-1.25,1.87-1.86.49-.47,1.04-.54,1.53-.24.7.44.72,1.26.05,1.93-2.49,2.48-4.98,4.96-7.47,7.44-3.03,3.02-6.06,6.03-9.09,9.05-.16.16-.31.31-.47.46-.64.58-1.17.59-1.78,0-1.71-1.68-3.42-3.36-5.12-5.05-1.87-1.85-3.74-3.71-5.62-5.57-.4-.39-.65-.83-.41-1.39.2-.47.58-.69,1.32-.7Z"/>
  </g>
</svg>