<?xml version="1.0" encoding="UTF-8"?>
<svg id="_レイヤー_2" data-name="レイヤー 2" xmlns="http://www.w3.org/2000/svg" viewBox="0 0 100.4 80">
  <g id="_レイヤー_1-2" data-name="レイヤー 1">
    <path d="M71.56,6.41c-.27-.99-.56-1.94-.78-2.91-.19-.81-.14-1.62.86-1.85.97-.22,1.38.35,1.58,1.25.36,1.64.82,3.27,1.22,4.9.45,1.84-.3,2.82-2.18,2.9-1.6.06-3.2.15-4.8.21-.88.03-1.74-.12-1.8-1.21-.06-1.13.77-1.29,1.68-1.26.63.02,1.27,0,2.26,0-.55-.34-.81-.52-1.1-.67-4.52-2.31-9.16-4.31-14.26-4.92-9.65-1.16-18.5.85-26.33,6.79-.15.11-.26.34-.4.36-.66.07-1.55.37-1.93.06-.71-.58-.39-1.38.31-1.96,3.85-3.19,8.11-5.66,13.02-6.69,3.29-.69,6.65-1.23,10-1.38,7.35-.34,14.1,1.93,20.5,5.39.6.33,1.21.64,1.82.96.06.03.15.02.32.04Z"/>
    <path d="M100.4,39.77c-.51.44-.97,1.15-1.53,1.25-1.02.18-1.42-.66-1.42-1.57,0-.91.36-1.63,1.45-1.58,1.01.04,1.29.7,1.5,1.9Z"/>
    <path d="M97.62,62.64c0-5.45,0-10.71,0-15.98,0-.5-.15-1.08.04-1.49.23-.48.7-1.03,1.17-1.15.8-.2,1.25.37,1.28,1.19.02.37,0,.73,0,1.1,0,5.54,0,11.09,0,16.63,0,1.68-.42,2.18-2.05,2.18-13.65.02-27.31.01-40.96.03-1.31,0-1.63-.73-1.63-1.85.01-3.39.02-6.78,0-10.17-.04-12.32-.09-24.65-.14-36.97-.01-2.54.21-2.76,2.69-2.77,13.24-.07,26.48-.14,39.72-.21,1.98-.01,2.34.35,2.34,2.28,0,5.41,0,10.81.01,16.22,0,.23,0,.46,0,.69,0,.86-.34,1.45-1.27,1.43-.94-.01-1.2-.63-1.2-1.48.02-4.95.01-9.9.01-14.84,0-.49,0-.99,0-1.54h-10.17c0,.54,0,1.03,0,1.51,0,4.9-.03,9.8.02,14.71.01,1.18-.51,1.69-1.51,2.11-2.13.9-4.17,1.16-6.19-.25-1-.7-2.13-.69-3.08.03-2.31,1.74-4.56.9-6.84,0-.89-.35-1.11-1.08-1.11-1.99.03-4.81.01-9.62.01-14.43,0-.5,0-1,0-1.6h-10.77v46.61h39.6ZM71.26,15.98c0,5.13-.01,10.11.03,15.08,0,.34.33.82.64.98,1.01.55,2.07.66,3.11,0,2.19-1.37,4.36-1.42,6.52.06.19.13.4.23.61.3,1.5.48,2.86-.51,2.86-2.05-.01-4.07-.02-8.14-.03-12.21,0-.71,0-1.43,0-2.17h-13.75Z"/>
    <path d="M28.61,28.57c3.71,1.49,6.66,3.73,8.87,6.87,3.28,4.67,4.49,9.75,3.3,15.44-.33,1.58-.14,3.37.22,4.97,1.05,4.64-1.38,8.63-5.93,9.11-1.25.13-2.59-.35-3.87-.64-2.16-.49-4.28-.32-6.34.4-2.15.76-4.25.86-6.41.08-2.62-.96-5.23-.86-7.92-.11-5.21,1.47-9.97-3.13-8.49-8.29.72-2.51.37-4.86-.06-7.29-.94-5.25.66-9.83,3.76-13.97.9-1.2,1.98-2.26,3.13-3.56-1.22,0-2.34,0-3.45,0-2.44-.02-4.55-1.57-5.23-3.88-.23-.8-.42-1.74.61-2.11,1.01-.36,1.45.36,1.76,1.23.68,1.93,1.22,2.28,3.21,2.28,1.65,0,3.3.05,4.95-.02,1.11-.04,2.21-.25,3.62-.42-1.64-2.43-3.09-4.57-4.53-6.71-.31-.45-.64-.89-.91-1.37-.58-1.04-.42-1.83.66-2.53,1.22-.78,2.39-1.68,3.48-2.65,2.09-1.86,4.71-1.55,6.18.82.17.27.32.56.5.82,1.09,1.58,2.51,1.56,3.38-.15.87-1.71,2.06-2.86,4.06-2.61.84.11,1.69.57,2.43,1.04,1.3.83,2.49,1.84,3.79,2.67,1.24.79,1.46,1.45.62,2.68-1.74,2.57-3.5,5.13-5.38,7.87ZM21.31,30.18c-1.37.06-2.78-.08-4.09.22-5.83,1.36-9.67,5.11-11.89,10.54-1.02,2.51-1.49,5.16-.87,7.9.6,2.65.79,5.26.03,7.97-1,3.56,1.97,6.5,5.5,5.43,3.3-1,6.49-.84,9.66.28,1.33.47,2.56.44,3.86-.02,3.05-1.08,6.15-1.32,9.26-.32,1.82.59,3.46.37,4.8-1,1.34-1.36,1.36-2.99,1.02-4.84-.35-1.89-.33-3.86-.3-5.79.03-1.45.56-2.9.48-4.33-.23-4.19-1.8-7.88-4.67-10.96-3.45-3.7-7.66-5.53-12.77-5.09ZM11.53,20.1c1.6,2.37,3.19,4.76,4.84,7.11.21.3.71.53,1.09.54,2.69.08,5.39.12,8.08.12.3,0,.71-.2.87-.44,1.69-2.47,3.35-4.96,5.02-7.47-.54-.39-.99-.7-1.42-1.04-.46-.37-.92-.75-1.35-1.16-1.63-1.56-2.36-1.49-3.45.46-.81,1.45-1.89,2.4-3.65,2.47-2.16.09-3.3-1.24-4.3-2.86-.87-1.41-1.46-1.47-2.69-.39-.96.84-1.92,1.67-3.05,2.65Z"/>
    <path d="M26.5,73.01c.3,1.08.57,1.89.74,2.73.17.78,0,1.64-.9,1.67-.49.01-1.28-.57-1.45-1.06-.59-1.67-1.01-3.4-1.42-5.13-.33-1.38.4-2.35,1.78-2.5,1.77-.2,3.54-.37,5.32-.55.86-.08,1.61.07,1.67,1.12.06,1.15-.77,1.29-1.65,1.35-.77.05-1.53.12-2.65.2,4.57,2.66,9.07,4.53,13.88,5.56,12,2.59,23,.24,33.01-6.86.48-.34,1.32-.55,1.86-.38.91.29.8,1.39-.19,2.18-4.12,3.3-8.77,5.55-13.83,6.99-12.4,3.53-24.02,1.25-35.13-4.75-.27-.15-.55-.3-1.05-.57Z"/>
    <path d="M84.32,48.36c-1.74,0-3.48-.02-5.22,0-.93.02-1.72-.17-1.77-1.23-.05-1.14.8-1.25,1.7-1.25,3.57,0,7.15-.04,10.72-.06.9,0,1.89.03,1.85,1.26-.03,1.07-.88,1.22-1.79,1.21-1.83-.03-3.67,0-5.5,0,0,.02,0,.05,0,.07Z"/>
    <path d="M81.53,53.6c.91,0,1.86-.14,2.73.05.52.12.92.77,1.37,1.17-.4.42-.78,1.16-1.22,1.2-1.95.17-3.92.16-5.88.16-.82,0-1.57-.49-1.37-1.31.13-.52.91-1.09,1.5-1.22.91-.2,1.91-.05,2.87-.05Z"/>
    <path d="M22.96,56.44c-.27,1.07.47,2.64-1.3,2.63-1.74,0-1.08-1.55-1.2-2.1-1.36-1.19-2.53-2.09-3.53-3.15-.63-.68-.77-1.68.16-2.27.92-.57,1.5.1,1.95.88.66,1.14,1.69,1.66,2.98,1.54,1.54-.14,2.63-1.52,2.53-3.04-.1-1.38-1.21-2.27-2.87-2.29-3.87-.05-6.56-3.86-5.01-7.33.49-1.09,1.52-2.04,2.51-2.77.71-.52,1.13-.91,1-1.81-.05-.38,0-.9.23-1.16.29-.33.83-.67,1.21-.61.37.05.87.53.97.92.16.59.04,1.26.04,1.92,1.72.62,3.11,1.51,3.8,3.2.33.82.34,1.54-.6,1.94-.9.39-1.29-.17-1.66-.9-.74-1.45-2.05-2.02-3.4-1.57-1.24.41-2.14,1.8-2.02,3.09.13,1.29,1.26,2.39,2.64,2.56,3.48.44,5.29,1.77,5.61,4.12.39,2.85-.82,4.71-4.05,6.18Z"/>
  </g>
</svg>