<?xml version="1.0" encoding="UTF-8"?>
<svg id="_レイヤー_2" data-name="レイヤー 2" xmlns="http://www.w3.org/2000/svg" viewBox="0 0 94 80">
  <g id="_レイヤー_1-2" data-name="レイヤー 1">
    <path d="M67.73,21.35c1.51.27,2.96.44,4.36.8,10.8,2.79,17.88,9.63,20.72,20.31,3.01,11.3.31,21.43-8.12,29.68-6.08,5.96-13.56,8.57-22.06,7.69-6.94-.72-12.69-3.95-17.43-9.01-1.14-1.22-2.11-2.59-3.1-3.93-.28-.38-.54-.5-1.01-.49-7.89.21-15.66-.46-23.13-3.21-2.44-.9-4.75-2.05-6.56-3.99-1.18-1.27-1.89-2.77-1.98-4.5-.1-1.97-.07-3.95-.15-5.92-.03-.66-.14-1.34-.34-1.98-.31-.99-1.08-1.58-1.96-2.07-1.26-.72-2.55-1.4-3.72-2.25C1.06,40.89-.04,38.72.02,35.95c.06-2.84.08-5.69-.01-8.53-.09-2.81,1.09-4.93,3.32-6.46,1.21-.83,2.56-1.46,3.88-2.1.49-.24.67-.48.66-1.01-.03-1.69.04-3.39-.03-5.08-.11-2.53.92-4.5,2.79-6.1,2.27-1.94,4.96-3.1,7.76-4.01C24.16.77,30.12.13,36.15.02c6.48-.12,12.88.36,19.15,2.11,3.13.87,6.16,1.98,8.82,3.91.77.56,1.47,1.23,2.1,1.93,1.06,1.17,1.53,2.6,1.52,4.18-.02,2.84,0,5.69-.01,8.53,0,.21,0,.43,0,.67ZM65.76,24.46c-.93.06-1.87.08-2.79.19-6.91.83-12.69,3.8-17.05,9.26-6.85,8.56-7.59,20.82-1.77,30.43,4.58,7.55,11.3,11.92,20.18,12.5,6.84.45,12.89-1.81,17.86-6.47,7.28-6.83,9.99-15.33,8.25-25.14-2.16-12.14-12.43-20.68-24.68-20.76ZM37.88,3.1c-4.83.03-9.63.33-14.36,1.37-3.36.73-6.66,1.65-9.61,3.49-.78.49-1.52,1.1-2.13,1.78-1.11,1.23-1.12,2.7-.04,3.96.55.65,1.2,1.3,1.94,1.71,1.62.9,3.28,1.79,5.02,2.44,3.94,1.49,8.07,2.2,12.26,2.55,7.42.63,14.79.43,22.05-1.35,3.13-.77,6.2-1.73,8.92-3.52.82-.54,1.58-1.23,2.19-2,.86-1.09.84-2.34-.02-3.43-.54-.69-1.22-1.31-1.94-1.81-2.13-1.48-4.54-2.35-7.01-3.05-5.64-1.6-11.41-2.16-17.25-2.16ZM64.74,17.45c-.19.08-.28.12-.37.17-.87.53-1.71,1.11-2.62,1.57-4.67,2.36-9.69,3.54-14.85,4.13-8.21.94-16.38.73-24.47-1.14-3.98-.92-7.81-2.22-11.17-4.63-.06-.04-.15-.05-.31-.1,0,1.38.07,2.7-.02,4.01-.13,1.93.73,3.28,2.22,4.35,1.71,1.23,3.6,2.08,5.58,2.77,3.69,1.28,7.5,2.01,11.37,2.41,4.61.47,9.22.69,13.82-.08.33-.06.71-.24.93-.49,3.77-4.05,8.36-6.75,13.71-8.08,1.8-.45,3.67-.63,5.51-.96.23-.04.62-.22.62-.35.05-1.16.03-2.32.03-3.57ZM3.14,31.98c0,1.76-.06,3.51.03,5.25.03.54.35,1.14.71,1.57.55.65,1.21,1.25,1.91,1.74,1.74,1.21,3.7,1.99,5.71,2.64,5.32,1.73,10.81,2.55,16.38,2.66,3.03.06,6.06-.19,9.1-.29.5-.02.67-.23.78-.72.37-1.58.77-3.16,1.24-4.71.26-.86.68-1.67,1.04-2.55-.21,0-.36-.02-.5,0-5.15.72-10.33.91-15.52.5-7.37-.59-14.53-1.92-20.9-6.1ZM12.43,49.97c0,1.29.04,2.48,0,3.67-.07,1.81.69,3.17,2.1,4.24,1.63,1.24,3.45,2.08,5.37,2.73,6.45,2.17,13.12,2.81,19.89,2.72.08,0,.15-.04.27-.07-.04-.14-.07-.24-.11-.33-1-2.2-1.74-4.49-2.12-6.88-.09-.53-.3-.66-.8-.65-3.61.07-7.2-.21-10.76-.8-4.74-.79-9.33-2.01-13.49-4.52-.07-.04-.16-.05-.34-.11ZM7.74,21.76c-1,.6-2.06,1.1-2.97,1.8-2.18,1.67-2.21,3.68-.16,5.52.26.23.52.48.82.64,1.58.81,3.11,1.76,4.76,2.37,7.65,2.79,15.59,3.44,23.66,2.94.91-.06,1.81-.19,2.71-.29-.17-.15-.32-.16-.47-.17-4.82-.17-9.61-.65-14.3-1.83-3.4-.85-6.72-1.94-9.68-3.89-2.44-1.61-4.28-3.62-4.24-6.8,0-.04-.04-.08-.14-.28ZM37.25,52.34v-3.63c-7.68.72-15.25.42-22.73-1.37,7.04,4.07,14.78,4.91,22.73,5Z"/>
    <path d="M67.76,37.38c1.75.31,3.28.94,4.69,1.87.42.28.71.57.4,1.12-.56,1-.91,1.23-1.57.91-.69-.32-1.34-.72-2.03-1.03-.52-.23-1.09-.37-1.71-.58-.14,1.42-.27,2.71-.4,4-.13,1.38-.25,2.77-.4,4.15-.06.53.04.82.62.97.69.18,1.35.47,2,.76,3.2,1.43,4.51,4.22,3.5,7.58-1,3.35-3.38,5.09-6.75,5.55-.69.1-.98.29-.98,1.01,0,.73-.12,1.47-.22,2.2-.09.62-.52.99-1.04.94-.55-.05-.92-.51-.86-1.17.08-.95.19-1.89.27-2.72-1.28-.47-2.52-.8-3.65-1.36-1.02-.5-1.94-1.22-2.88-1.89-.58-.41-.57-.65-.14-1.24.06-.09.13-.17.2-.26.58-.75.89-.79,1.68-.23.69.48,1.37,1.01,2.12,1.39.87.45,1.81.76,2.86,1.19.12-1.2.21-2.18.31-3.17.2-1.99.4-3.97.61-5.96.05-.42-.09-.61-.49-.76-.85-.32-1.69-.68-2.51-1.07-2.28-1.1-3.52-2.91-3.52-5.47,0-2.65,1.17-4.67,3.51-5.95,1.2-.66,2.52-.94,3.88-.93.45,0,.61-.15.64-.58.03-.58.1-1.17.16-1.75.02-.24.05-.48.12-.7.16-.49.51-.77,1.03-.7.54.07.8.45.78.96-.03.69-.12,1.38-.19,2.07-.02.26-.04.51-.07.84ZM65.46,60.33c.18.02.28.04.38.03,2.31-.19,3.86-1.5,4.44-3.74.67-2.6-1.17-4.99-3.95-5.08-.29,2.9-.57,5.8-.87,8.78ZM65.62,39.58c-2.77-.23-4.78,1.51-4.9,4.1-.09,1.96,2.02,4.12,4.07,4.13.28-2.73.55-5.46.83-8.23Z"/>
  </g>
</svg>