<?xml version="1.0" encoding="UTF-8"?><svg id="_レイヤー_2" xmlns="http://www.w3.org/2000/svg" viewBox="0 0 60.27 80"><g id="_レイヤー_1-2"><path d="M4.52,33.34c.1-1.6-.33-3.24-.98-4.85-.96-2.36-1.37-4.74-.19-7.15.34-.69.7-1.39,1.15-2.02,1.37-1.88,2.17-3.98,2.49-6.27.43-3.04,2.17-5.05,4.97-6.24,1.94-.82,3.91-1.61,5.35-3.28.41-.48.91-.88,1.37-1.32C20.69.31,23.08-.4,25.75.25c2.87.69,5.68.75,8.55.02,2.86-.73,5.39.04,7.52,2.09.48.46.89.98,1.41,1.37.97.73,1.95,1.44,3,2.05.89.52,1.87.87,2.8,1.32,2.31,1.13,3.69,2.98,4.21,5.48.15.73.24,1.49.48,2.2.36,1.06.77,2.1,1.27,3.1.4.82.96,1.56,1.46,2.33,1.49,2.33,1.71,4.83.67,7.34-1.02,2.47-1.44,4.97-1.33,7.62.13,3.14-1.17,5.64-3.82,7.32-2.05,1.3-3.66,2.96-4.93,5.02-1.17,1.9-2.72,3.37-5.03,3.76-.67.11-1.35.19-2.03.2-1.88.01-3.67.35-5.37,1.22-.85.44-1.77.76-2.69,1.02-1.8.51-3.53.1-5.22-.59-.3-.13-.62-.24-.9-.41-1.63-.96-3.42-1.24-5.28-1.23-3.11.02-5.56-1.2-7.2-3.88-1.27-2.08-2.87-3.79-4.96-5.09-2.87-1.79-3.91-4.56-3.86-7.82,0-.4,0-.8,0-1.35ZM7.12,34.09c0,.33.01.66,0,.99-.12,2.32.77,4.14,2.74,5.35,2.36,1.45,4.14,3.43,5.58,5.76,1.18,1.93,2.93,2.81,5.19,2.78,2.23-.03,4.38.32,6.37,1.46,2.11,1.21,4.29,1.24,6.44.03,2.09-1.18,4.37-1.52,6.72-1.51,1.82,0,3.28-.69,4.34-2.19.31-.44.64-.87.92-1.33,1.17-1.95,2.72-3.52,4.67-4.7,2.23-1.34,3.31-3.29,3.18-5.93-.06-1.17-.12-2.38.11-3.51.32-1.57.87-3.1,1.39-4.63.59-1.78.51-3.46-.51-5.06-.35-.55-.66-1.14-1.04-1.67-1.14-1.57-1.87-3.32-2.09-5.24-.34-3-1.76-5.06-4.72-6-2.34-.74-4.23-2.17-5.86-4.01-1.61-1.82-3.62-2.54-6.03-1.89-2.99.81-5.97.8-8.97-.02-.69-.19-1.45-.2-2.16-.14-1.44.11-2.56.94-3.49,1.95-1.86,2.04-4.05,3.55-6.66,4.45-2.33.81-3.56,2.46-3.89,4.88-.32,2.39-1.11,4.6-2.57,6.54-.14.19-.23.41-.37.6-1.37,1.95-1.55,3.99-.64,6.2.9,2.18,1.6,4.42,1.33,6.84Z"/><path d="M18.43,80c-2.4-2.91-4.73-5.74-7.04-8.58-.28-.35-.57-.47-1.01-.47-3.17.02-6.35.02-9.52.02-.23,0-.47,0-.86,0,2.95-6.7,5.87-13.31,8.81-19.98,2.29,1.2,4.51,2.36,6.74,3.51,1.61.83,3.2,1.68,4.85,2.42,1.55.7,3.21,1.02,4.92,1.06.84.02,1.68.08,2.62.12-3.18,7.33-6.33,14.58-9.51,21.89ZM17.74,75.14c2.16-4.96,4.27-9.8,6.4-14.68-.67-.11-1.24-.2-1.82-.3-2.38-.41-4.46-1.56-6.56-2.65-1.87-.97-3.73-1.95-5.68-2.96-2.07,4.65-4.11,9.24-6.19,13.91,2.6,0,5.07.02,7.53-.01.63,0,1.03.2,1.42.69,1.58,1.98,3.2,3.94,4.9,6.02Z"/><path d="M60.27,70.91c-3.34,0-6.54.03-9.73-.02-.91-.02-1.49.23-2.06.96-2.02,2.59-4.13,5.12-6.2,7.68-.12.14-.24.28-.42.47-3.14-7.33-6.25-14.61-9.41-21.98.64-.04,1.19-.12,1.73-.1,3.15.07,5.99-.91,8.71-2.41,2.69-1.48,5.44-2.87,8.16-4.29.12-.06.25-.12.41-.2,2.93,6.63,5.85,13.23,8.79,19.89ZM56.36,68.39c-2.06-4.67-4.09-9.26-6.13-13.89-2.4,1.27-4.73,2.48-7.04,3.72-1.79.96-3.66,1.7-5.69,1.96-.4.05-.81.1-1.28.16,2.14,4.96,4.23,9.83,6.36,14.78,1.75-2.16,3.41-4.23,5.11-6.26.2-.24.61-.43.93-.43,2.54-.03,5.07-.02,7.74-.02Z"/><path d="M45.83,26.94c.03,8.51-7.04,15.49-15.7,15.51-8.5.02-15.5-6.9-15.52-15.34-.02-8.77,6.87-15.64,15.71-15.66,8.55-.02,15.49,6.91,15.52,15.5ZM43.26,26.87c-.07-7.23-5.97-12.98-13.24-12.9-7.15.08-12.93,6.03-12.86,13.24.06,6.92,6.06,12.77,13.02,12.7,7.24-.07,13.15-5.97,13.08-13.04Z"/></g></svg>