<?xml version="1.0" encoding="UTF-8"?><svg id="_レイヤー_2" xmlns="http://www.w3.org/2000/svg" viewBox="0 0 70.86 68.03"><g id="_レイヤー_1-2"><path d="M49.05,56.76c-1.64.68-3.2,1.34-4.77,1.96-.47.18-.62.46-.63.95-.05,2.46-.13,4.92-.2,7.38-.02.62-.42.97-1.12.98-1.02,0-2.04,0-3.06,0-3.51,0-7.03,0-10.54,0-1.13,0-1.47-.33-1.49-1.47-.05-2.3-.09-4.6-.11-6.9,0-.45-.15-.69-.58-.86-1.59-.63-3.16-1.31-4.82-2-.23.23-.5.52-.78.81-1.54,1.54-3.08,3.09-4.62,4.62-.88.88-1.37.87-2.25,0-2.39-2.36-4.78-4.71-7.17-7.07-.15-.15-.3-.29-.44-.45-.45-.52-.44-1.01.02-1.5,1.4-1.48,2.81-2.96,4.22-4.43.71-.74.73-.77.21-1.65-.44-.75-.91-1.5-1.38-2.23-.08-.12-.26-.23-.4-.23-2.23,0-4.46,0-6.69,0-.49,0-.98-.02-1.48-.04-.62-.03-.94-.34-.94-.96,0-2.74,0-5.48,0-8.22,0-.69.3-.93,1.1-.93,4.43,0,8.86,0,13.29,0,1,0,1.99,0,3.03,0,0-.21,0-.36,0-.52,0-3.48,0-6.96,0-10.44,0-1.03-.01-1.04-1.07-1.04-3.39,0-6.78,0-10.18,0-1.03,0-1.33-.28-1.32-1.29.02-2.18.04-4.36.09-6.54,0-.41-.05-.58-.51-.69C1.8,13.32-.01,10.91.12,8.19.25,5.51,2.17,3.34,4.72,2.85c3.23-.63,6.28,1.63,6.69,4.92.38,3.1-1.86,5.86-4.77,6.31v6.73c.11,0,.26.02.41.02,3.37.02,6.75.03,10.12.07,1.23.02,1.91.77,1.92,2.02,0,3.66,0,7.31,0,10.97,0,.19,0,.38,0,.6h8.05V11.78c-1.8-.3-3.22-1.21-4.21-2.75-.74-1.14-1.05-2.41-.88-3.76C22.49,1.99,25.4-.09,28.2,0c2.78.09,5.36,2.33,5.74,5.21.37,2.8-1.47,5.96-5.08,6.61v22.66h12.11v-12.05c-1.76-.33-3.18-1.19-4.12-2.76-.68-1.14-.95-2.39-.73-3.68.51-2.98,2.96-5.04,5.76-4.95,3.01.1,5.37,2.23,5.67,5.23.23,2.33-1.21,5.37-4.84,6.17v12.04h8.68c0-.17,0-.36,0-.54,0-2.85.02-5.69-.01-8.54-.01-1.16.65-2,1.95-1.98,3.39.05,6.78.02,10.18.02h.59v-6.07c-1.66-.32-2.98-1.16-3.9-2.59-.82-1.27-1.11-2.68-.81-4.17.55-2.74,2.85-4.7,5.63-4.64,2.99.06,5.41,2.35,5.62,5.28.2,2.8-1.6,5.51-4.87,6.15,0,.18,0,.37,0,.55.01,1.95.02,3.9.03,5.85,0,.87-.46,1.32-1.33,1.32-3.66,0-7.31,0-10.97,0-.12,0-.25,0-.41,0v9.39c.19,0,.39,0,.59,0,5.25,0,10.51,0,15.76,0,.25,0,.49,0,.74.03.44.07.68.35.68.8,0,2.83,0,5.66,0,8.49,0,.52-.34.79-.96.8-2.81,0-5.62,0-8.44,0-.62.97-1.22,1.91-1.84,2.84-.25.37-.21.64.11.96,1.46,1.47,2.9,2.96,4.35,4.45.75.77.78,1.27.03,2.02-2.5,2.49-5.02,4.97-7.54,7.44-.76.74-1.28.71-2.03-.04-1.84-1.86-3.68-3.72-5.48-5.54ZM52.77,36.21c-.03.06-.05.13-.07.19-.03.1-.05.2-.08.3-1.01,3.87-2.97,7.16-6.08,9.7-4.09,3.34-8.78,4.48-13.97,3.71-3.63-.54-6.73-2.17-9.36-4.7-2.52-2.43-4.15-5.39-5.03-8.76-.11-.41-.28-.47-.64-.47-5.11,0-10.23,0-15.34,0h-.48v6.85c.22,0,.41,0,.6,0,2.39,0,4.78,0,7.17,0,.58,0,1.02.22,1.32.7.6.97,1.22,1.92,1.8,2.9.68,1.17.61,1.79-.31,2.78-1.41,1.52-2.84,3.02-4.07,4.34,2.31,2.42,4.63,4.83,6.96,7.27,1.73-1.74,3.42-3.43,5.11-5.12.79-.79,1.45-.92,2.47-.49,1.38.58,2.77,1.17,4.15,1.74,1.47.6,1.85,1.16,1.87,2.73.03,2.04.07,4.08.11,6.11,0,.1.03.2.04.3h12.88c0-.12.02-.21.02-.3.04-2.07.11-4.15.12-6.22,0-1.28.51-2.16,1.75-2.64,1.43-.55,2.84-1.16,4.26-1.74,1.06-.43,1.69-.3,2.51.52,1.55,1.56,3.1,3.11,4.65,4.67.14.14.29.28.43.41,2.43-2.38,4.8-4.72,7.16-7.03-1.49-1.59-2.98-3.14-4.41-4.72-.82-.9-.84-1.52-.2-2.56.6-.98,1.24-1.95,1.86-2.92.33-.52.79-.74,1.42-.73,2.41.02,4.82,0,7.22,0,.18,0,.37,0,.53,0v-6.83h-16.38ZM50.96,36.22h-31.11c1.32,6.01,7.02,12.47,15.55,12.48,8.1,0,14.08-5.89,15.56-12.48ZM32.18,5.98c.03-2.27-1.82-4.14-4.11-4.16-2.23-.03-4.2,1.76-4.23,3.83-.03,2.52,1.65,4.32,4,4.41,2.29.09,4.4-1.75,4.35-4.07ZM41.81,12.86c-2.19-.07-4.04,1.88-3.97,4,.07,2.16,1.76,3.83,4.02,3.83,2.13,0,3.98-1.85,3.93-4-.06-2.13-1.78-3.83-3.97-3.83ZM68.86,11.69c0-2.17-1.76-3.95-3.88-3.92-2.17.02-3.92,1.76-3.92,3.9,0,2.22,1.71,3.96,3.89,3.96,2.2,0,3.91-1.72,3.91-3.94ZM5.81,4.55c-1.81-.17-3.93,1.53-3.91,3.86.01,2.2,1.69,3.94,3.83,3.95,2.25,0,3.97-1.7,3.98-3.92,0-2.33-2.02-4.02-3.89-3.88Z"/></g></svg>