<?xml version="1.0" encoding="UTF-8"?><svg id="_レイヤー_2" xmlns="http://www.w3.org/2000/svg" viewBox="0 0 59.54 61"><g id="_レイヤー_1-2"><path d="M23.59,55.47c.65-1.72,1.8-2.84,3.56-3,1.47-.13,2.99-.13,4.45.09,2.03.3,3.47,2.3,3.34,4.28-.15,2.22-1.69,3.93-3.83,4.08-1.31.09-2.64.11-3.95-.01-1.6-.15-2.75-1.06-3.38-2.56-.16-.39-.38-.48-.76-.47-3.51.07-6.88-.58-9.94-2.33-5.46-3.12-8.64-7.85-9.62-14.06-.01-.08-.04-.17-.03-.25.08-1.54-.57-2.65-1.82-3.58-1.1-.82-1.56-2.12-1.58-3.49C0,31.43-.01,28.68.01,25.94c.02-2.46,1.29-4.2,3.64-4.97.8-.26,1.17-.69,1.39-1.51,1.26-4.74,3.37-9.04,6.98-12.46C16.39,2.86,21.58.59,27.57.1c7.28-.6,13.65,1.53,19.11,6.35,3.98,3.51,6.5,7.93,7.74,13.07.17.7.5,1.09,1.17,1.34,2.8,1.04,3.95,2.73,3.95,5.71,0,2.43,0,4.85,0,7.28,0,2.66-1.39,4.51-3.96,5.26-.49.14-.98.28-1.47.41-.88.24-1.55-.05-1.77-.76-.23-.75.17-1.42,1.04-1.69.63-.2,1.27-.35,1.89-.56,1.07-.36,1.59-1.07,1.6-2.2.03-2.77.02-5.53.06-8.3.02-1.32-.6-2.17-1.8-2.64-.65-.25-1.31-.51-1.97-.75-.53-.19-.77-.56-.9-1.12-1.83-8.09-6.26-14.2-14.09-17.29-7.97-3.15-15.54-1.9-22.45,3.11-4.59,3.33-7.08,8.08-8.35,13.48-.33,1.39-.92,2.05-2.28,2.35-2.01.45-2.49,1.18-2.49,3.24,0,2.41.02,4.81,0,7.21,0,1.28.52,2.3,1.65,2.8,1.23.55,1.44,1.49,1.54,2.65.25,3.02,1.01,5.9,2.62,8.51,2.74,4.44,6.76,6.89,11.88,7.59,1.09.15,2.2.21,3.29.3ZM29.25,54.93h0c-.51,0-1.02-.02-1.53,0-.95.06-1.72.82-1.75,1.71-.03.91.73,1.78,1.69,1.83,1.02.05,2.04.05,3.06,0,1-.05,1.69-.86,1.65-1.83-.03-.95-.79-1.68-1.79-1.71-.45-.01-.89,0-1.34,0Z"/><path d="M49.34,28.91c.14,9.28-7.66,19.44-19.57,19.53-11.06.08-19.68-9.16-19.63-19.62.05-10.27,8.08-19.5,19.58-19.52,10.89-.02,19.61,8.7,19.63,19.61ZM46.71,28.79c-.05-9.46-7.63-16.98-17.09-16.95-9.26.03-16.95,7.74-16.88,16.94.08,9.52,7.63,17.15,16.92,17.08,9.42-.07,17.1-7.75,17.05-17.07Z"/></g></svg>